<svg xmlns="http://www.w3.org/2000/svg" version="1" viewBox="0 0 500 500"><path fill="#87929f" d="M410 389c14 12 35 12 37 33 1 18-14 18-27 24-46 22-91 47-138 32-32-10-198-113-222-127-33-20 61-60 101-70 58-15 249 108 249 108z"/><path d="M241 380c0 2 4 5 7 5a82 82 0 0 0 20-12v3l-2 1-2 2h-2l-1 2-13 7-3-1-3-2-1-2v-3z"/><path fill="#1b181a" d="M248 385c-3 0-7-3-7-5 0-4 4-3 6-6l1-1 3-5h1l4 3c4 2 7 3 12-2v4l-4 3-16 9z"/><path fill="#171043" d="M251 368l3-19 2 1-4 18h-1z"/><path fill="#140f2c" d="M256 371l-4-3 4-18 15 10a156 156 0 0 1-3 9c-5 5-8 4-12 2z"/><path d="M268 397c3 0 11-5 16-8l2 1-2 1h-2l-2 3-12 6-3-1-3-1-2-3v-2c1 2 4 4 8 4z"/><path fill="#1b181a" d="M268 397c-4 0-7-2-8-4l1-1c0-3 3-3 6-6l4-5 4 2c4 2 8 3 13-1v4l-4 3c-5 3-13 8-16 8z"/><path fill="#171043" d="M271 381l3-20 1 1-4 19z"/><path fill="#140f2c" d="M275 383l-4-2 4-19 16 10-3 9v1c-5 4-9 3-13 1z"/><path fill="#91a3ae" d="M378 299l-10 5v-1z"/><path fill="#91a3ae" d="M369 235l-4-2v-10l14 8c4 2 7 9 6 15l-7 53-10 4 7-53c1-6-2-13-6-15z"/><path fill="#d3d3d3" d="M372 186v11l-7 4-7 3h-1l-4 2-56 26-11 5-26 13c-4-3-5-7-1-10l27-13 11-6 46-21 29-14z"/><path fill="#b7c6cc" d="M364 275l1-42 4 2c4 2 7 9 6 15l-7 53v1l-1-1-44-28 2-14 32 18 7-4z"/><path fill="#d3d3d3" d="M368 303v1-1zM368 304v7-7z"/><path fill="#91a3ae" d="M368 312v-8l10-5-1 8-2 5-3 2-4-2z"/><path fill="#d3d3d3" d="M368 304z"/><path fill="#91a3ae" d="M368 312l-7-3 7-5v8zM372 314l-8 5h-3c4 1 7-2 7-7l4 2zM365 223v10l-8-4v-10z"/><path fill="#b7c6cc" d="M365 233l-1 42-7 4v-50z"/><path fill="#e4e4e4" d="M372 314l61 34-79 46-2 1-7-4-2-1-3-2-9-5-6-3-5-3-137-78-2-1-22-13-7-3v-1l-4-2-46-26c-3-3-4-7-3-12 1-4 4-8 8-11l21-11 167-76 77 43-29 14-46 21-11 6-27 13c-4 3-3 7 1 10l10 9h1l15 8 33 19c1 6 4 12 9 15l24 13 7 4 2 1h3l8-5z"/><path fill="#91a3ae" d="M359 318l-7-4 9-5 7 3c0 5-3 8-7 7l-2-1z"/><path fill="#d3d3d3" d="M357 204l-3 2h-1l4-2h1l7-3v22l-8-4z"/><path fill="#b7c6cc" d="M323 275l44 28-45-27z"/><path fill="#d3d3d3" d="M354 394l79-46v10l-13 8h-1l-67 38v-9z"/><path fill="#e4e4e4" d="M419 366h1v70l-71 41v-74l3 1 67-38z"/><path fill="#d3d3d3" d="M341 399l8 4v74l-7-4v-54l-1-20z"/><path fill="#e4e4e4" d="M278 364l63 35 1 20v46l-56-31-8-4v-66z"/><path fill="#b7c6cc" d="M332 220c2-2 5-3 7-1l18 10v50l-32-18 5-36 2-5z"/><path fill="#91a3ae" d="M332 220c2-4 14-7 17-5l8 4v10l-18-10c-2-2-5-1-7 1z"/><path fill="#d3d3d3" d="M297 232l56-26h1l3-2v15l-8-4c-3-2-15 1-17 5l-2 5-5 36-39-23v-1l11-5z"/><path fill="#b7c6cc" d="M361 309l-9 5-24-13c-5-3-8-9-9-15l4 2 2 1h1l35 20z"/><path fill="#b7c6cc" d="M322 276l45 27 1 1-7 5-35-20h-1l-2-1-4-2v-14l4 3-1 1z"/><path fill="#d3d3d3" d="M278 430l8 4-8 5v-9zM271 434l-1-74h1l2 1 5 3v75l-7-5zM183 310v61l-8 4 1-69 7 4z"/><path fill="#e4e4e4" d="M104 264l72 42-1 69-71-41v-70z"/><path fill="#d3d3d3" d="M102 263c-4-3-6-16-3-22-1 5 0 9 3 12l46 26 4 2v1l7 3 22 13 2 1 59 34h1l2 1 1 1 3 2 2 1h1l68 39 5 3 6 3 9 5 3 2 2 1 7 4 2-1-2 1v9l-3-1-8-4a12068 12068 0 0 1-68-38l-2-1h-1l-11-7-76-43-7-4-72-42-2-1z"/><g><path fill="#87929f" d="M97 92v80l-1 14 9-5 122-68V20L97 92zm133 24L92 194l1-104 138-79-1 105z"/><path fill="#99ce60" d="M209 57l-14 31h-19l-12 39-28 2-31 52-9 5 1-14 35-55 28-1 12-35 22-1 13-29v-5l9-6-5 24z"/><path fill="#fff" d="M227 20v93l-122 68 31-52 28-2 12-39h19l14-31 2 7 5-24-9 6v5l-13 29-22 1-12 35-28 1-35 55V92z"/></g><g><path fill="#f1cb63" d="M367 466c0 2 0 4 2 5 1 1 2 0 3-2l-2-6c-1-1-3 0-3 3z"/><path fill="#606161" d="M372 469l-2-6c-1-1-3 0-3 3 0 2 0 4 2 5 1 1 2 0 3-2zm-10-28l16 9v31l-16-9v-31z"/><path fill="#f1cb63" d="M362 428v4l18 9v-4z"/><path fill="#e1e1e1" d="M419 427c-3 2-5 9-5 16 1 7 3 11 6 10 3-2 5-9 4-16 0-7-3-12-5-10zM400 440c-3 2-5 9-4 16 0 7 3 11 5 10 3-2 5-9 4-16 0-7-2-12-5-10z"/><path fill="#9d9d9d" d="M380 441v-4l-18-9v4l18 9zm-2 40v-31l-16-9v31l16 9zm6-47l-1 55-24-14 1-55 24 14z"/><path fill="#e1e1e1" d="M432 406v55l-49 28 1-55 48-28zm-31 60c3-2 5-9 4-16 0-7-2-12-5-10s-5 9-4 16c0 7 3 11 5 10zm19-13c3-2 5-9 4-16 0-7-3-12-5-10-3 2-5 9-5 16 1 7 3 11 6 10z"/><path fill="#bdbcbc" d="M408 392l-48 28 24 14 48-28z"/></g><g><path fill="#aa7896" d="M273 152l-5-2 2 1 2 1h1z"/><path fill="#f1e5d9" d="M310 161l3-1-2-2-2 1 1 2zm10-3l-15 8-10-15 15-8 10 15zm-3 0l-1-3-3 2 2 2 2-1zm-8 4l-2-2-3 1 2 3 3-2zm5-9l-1-3-3 2 2 2 2-1zm-3-5l-2-2-2 1 1 3 3-2zm-1 7l-2-2-2 1 2 3 2-2zm-4-4l-1-3-3 1 2 3 2-1zm0 7l-2-3-3 2 2 2 3-1zm-4-5l-1-2-3 1 2 2 2-1z"/><path fill="#bf925f" d="M316 155l1 3-2 1-2-2zM311 158l2 2-3 1-1-2zM307 160l2 2-3 2-2-3zM313 150l1 3-2 1-2-2zM308 153l2 2-2 2-2-3zM304 155l2 3-3 1-2-2zM309 146l2 2-3 2-1-3zM305 148l1 3-2 1-2-3zM301 151l1 2-2 1-2-2z"/><path fill="#a79182" d="M283 156l-8-6h2l7 5-1 1z"/><path fill="#dfcfc2" d="M290 177v8l-33-20v-19h1l19 12z"/><path fill="#917768" d="M323 166l-33 19v-8l33-18v7z"/><path fill="#beaa9b" d="M295 164l-1-4-5-9 20-12 1 1 13 18v1l-33 18-13-19 2-1 1 1 2 3 1 1 6 7c1 2 4 2 6 0v-5zm25-6l-10-15-15 8 10 15 15-8z"/><path fill="#a79182" d="M258 146l7-4v1l-1 2c-2 1 2 4 4 5l5 2 3 2 3 3-2 1-19-12z"/><path fill="#a79182" d="M289 151l-9-7c-2-1-5-3-8-3l-7 2v-1l25-14v-1l19 12-20 12zm5-6l1-1 1-1h1l2-1 1-1 1-1h1l1-1-1-1-10-6h-1l-14 7 2 1 9 6 2 1h1l1-1 2-1z"/><path fill="#70375f" d="M285 163c2 3 5 5 7 4l3-3v5c-2 2-5 2-6 0l-6-7 2 1zM268 150c-2-1-6-4-4-5-1 2 2 4 4 5z"/><path fill="#70375f" d="M283 156c-1 2 0 5 2 7a17 17 0 0 1-3-2l-2-3-1-1-3-3-3-2 2-2 8 6zM291 133l10 6h-1l-10-5zM297 141l-9-6 1-1 9 6zM296 142h-2l-9-5 1-1zM293 143l-1 1-10-6 2-1zM291 144l-2 1-9-5 1-1z"/><path fill="#8e5381" d="M292 144h-1l-10-5 1-1zM294 142l-1 1-9-6h1zM297 141l-1 1-10-6 2-1zM289 134h1l10 5-2 1-9-6zM302 138l-1 1-10-6 1-1z"/><path fill="#8e5381" d="M303 139l-1 1-1-1 1-1z"/><path fill="#8e5381" d="M302 140h-1l-1-1h1z"/><path fill="#8e5381" d="M300 139l1 1-1 1-2-1z"/><path fill="#8e5381" d="M300 141l-1 1-2-1 1-1z"/><path fill="#8e5381" d="M299 142l-2 1-1-1 1-1z"/><path fill="#8e5381" d="M297 143h-1l-2-1h2z"/><path fill="#8e5381" d="M296 143l-1 1-2-1 1-1z"/><path fill="#8e5381" d="M295 144l-1 1-2-1 1-1z"/><path fill="#8e5381" d="M294 145l-2 1-1-2h1z"/><path fill="#8e5381" d="M292 146l-1 1-2-2 2-1z"/><path fill="#8e5381" d="M291 147h-1l-2-1 1-1z"/><path fill="#8e5381" d="M289 145l-1 1-9-6h1zM277 139l14-7h1l-1 1-1 1h-1l-1 1-2 1-1 1h-1l-2 1-1 1-1 1h-1zM265 143l7-2c3 0 6 2 8 3l9 7 5 9 1 4-3 3-1-5c-2-6-6-13-12-16-4-2-11-4-15-2v1l1-2z"/><path fill="#aa7896" d="M275 150l-2 2h-1l-2-1a7 7 0 0 1-2-1c-2-1-5-3-4-5v-1c4-2 11 0 15 2 6 3 10 10 12 16l1 5c-2 1-5-1-7-4-2-2-3-5-2-7l1-1-7-5h-2z"/></g><g><path fill="#f4f5f5" d="M405 355v2l-18 12-1-4v-5l19-12-1 4 1 3z"/><path fill="#f6a7b7" d="M385 359l23-14v1l-3 2-19 12h-1v-1z"/><path fill="#f6a7b7" d="M387 370l21-13v2l-22 13-2-6 1-6h1v5a18 18 0 0 0 1 5z"/><path fill="#dd3361" d="M405 355l3 2-21 13v-1l18-12v-2z"/><path fill="#f06d85" d="M384 366l2 6-34-18-1-6c0-4 2-7 2-7l32 18v1l-1 6z"/><path fill="#be4259" d="M385 359l-32-18 22-14 33 18z"/></g><g><path fill="#f4f5f5" d="M417 343v2l-18 12-1-4v-5l19-12-1 3 1 4z"/><path fill="#fbcbb0" d="M398 347l22-14v1l-3 2-19 12h-1l1-1z"/><path fill="#fbcbb0" d="M399 358l21-13v1l-21 14-3-7 1-5h1v5a18 18 0 0 0 1 5z"/><path fill="#dc713c" d="M417 343l3 2-21 13v-1l18-12v-2z"/><path fill="#f8a676" d="M397 353c0 4 2 7 2 7l-34-19s-2-2-2-5c0-4 2-7 2-7l33 18-1 1v5z"/><path fill="#be7549" d="M398 347l-33-18 23-14 32 18z"/></g><g><path fill="#ffe4bf" d="M366 332l1-1-23-12-1 1z"/><path fill="#ead3b3" d="M368 331l-22-13-2 1 23 12z"/><path fill="#c9b58a" d="M370 330l-23-13-1 1 22 13z"/><path fill="#dcc7a1" d="M371 329l-22-13-2 1 23 13z"/><path fill="#ead3b3" d="M371 329l1-1-22-12h-1l22 13z"/><path fill="#ffe4bf" d="M374 327l-22-12-2 1 22 12z"/><path fill="#97866d" d="M370 343c2 0 3-3 3-6l-1-3c-2 1-3 3-3 6l1 3z"/><path fill="#21231f" d="M370 343l2 1 2-6-2-4 1 3c0 3-1 6-3 6z"/><path fill="#9a9590" d="M372 345c1-1 3-4 3-7 0-4-2-6-3-5-2 0-4 4-4 7 0 4 2 6 4 5zm0-11l2 4-2 6-2-1-1-3c0-3 1-5 3-6z"/><path fill="#645e5a" d="M370 331l7-4-23-13-2 1 22 12-2 1-1 1-1 1-2 1h-1l-1 1-23-12h-2l24 14z"/><path fill="#363833" d="M365 334l1 20 11-6v-21l-7 4-5 3zm7-1c1-1 3 1 3 5 0 3-2 6-3 7-2 1-4-1-4-5 0-3 2-7 4-7z"/><path fill="#21231f" d="M340 324l8 6c4 5 3 9 6 15 3 5 9 8 12 9l-1-20-24-14v3l-1 1z"/><path fill="#9c6f5d" d="M347 331c4 5 3 9 6 15 5 7 13 10 13 10l14-8-3-2v2l-11 6c-3-1-9-4-12-9-3-6-2-10-6-15l-8-6 1-1v-1l-2 1v1h-1s7 4 9 7z"/><path fill="#79493b" d="M380 348l-14 8v24l14-8z"/><path fill="#58281b" d="M353 346c-3-6-2-10-6-15-2-3-9-7-9-7l1 39 27 17v-24s-8-3-13-10z"/></g><g><path fill="#ffe4bf" d="M349 341h2l-23-13-2 1z"/><path fill="#ead3b3" d="M352 340l-22-13-2 1 23 13z"/><path fill="#c9b58a" d="M353 339l-22-13-1 1 22 13z"/><path fill="#dcc7a1" d="M355 338l-22-13-2 1 22 13z"/><path fill="#ead3b3" d="M355 338l1-1-22-12h-1l22 13z"/><path fill="#ffe4bf" d="M358 336l-22-12-2 1 22 12z"/><path fill="#97866d" d="M354 352l2-6v-3h-1l-2 6 1 3z"/><path fill="#21231f" d="M354 352l1 1c2-1 3-3 3-6l-2-4v3l-2 6z"/><path fill="#9a9590" d="M355 354c2-1 4-4 4-7 0-4-2-6-4-5-2 0-3 4-3 7 0 4 1 6 3 5zm0-11h1l2 4c0 3-1 5-3 6l-1-1-1-3 2-6z"/><path fill="#645e5a" d="M354 340l7-4-24-13-1 1 22 12-2 1-1 1-2 1-1 1-1 1h-2l-23-12-1 1 24 13z"/><path fill="#363833" d="M349 343v21l12-7v-21l-7 4-5 3zm6-1c2-1 4 1 4 5 0 3-2 6-4 7s-3-1-3-5c0-3 1-7 3-7z"/><path fill="#21231f" d="M324 333l8 6c3 5 2 10 6 15 3 5 9 8 11 10v-21l-24-13v2l-1 1z"/><path fill="#9c6f5d" d="M331 340c3 5 2 9 6 15 4 7 13 10 13 10l13-8-2-2v2l-12 7c-2-2-8-5-11-10-4-5-3-10-6-15l-8-6 1-1v-1l-2 1-1 1s7 4 9 7z"/><path fill="#79493b" d="M363 357l-13 8-1 24 14-8z"/><path fill="#58281b" d="M337 355c-4-6-3-10-6-15-2-3-9-7-9-7v39l27 17 1-24s-9-3-13-10z"/></g><g><path fill="#c9c9c9" d="M104 240l25 15 2-1-25-15-2 1z"/><path fill="#d3d3d3" d="M106 211v28l25 15s2-9-3-20l-1-3c-7-12-21-20-21-20z"/><path fill="#e4e4e4" d="M106 211a55 55 0 0 0 22 23h1v-14l-11-9-5-4-7 4z"/><path fill="#d8bedb" d="M129 205l10 6v-1l-7-4-2-1h-1z"/><path fill="#e4e4e4" d="M129 220v14l9 5a41 41 0 0 0-9-19z"/><path fill="#e4e4e4" d="M138 251v-12l-9-5h-1c5 11 3 20 3 20l7-3z"/><path fill="#926daf" d="M135 230l3-2 1-17-10-6v15a39 39 0 0 1 6 10z"/><path fill="#926daf" d="M138 228l-3 2 3 9 8 5v-11l-8-5z"/><path fill="#d8bedb" d="M138 200l-1 1 1-1zM139 201l-1-1-1 1 2 1v-1z"/><path fill="#e4e4e4" d="M139 203h-1l-1 1-2 1-3 1 7 4v-7z"/><path fill="#9972b1" d="M138 203h1v-1l-2-1v3l1-1z"/><path fill="#926daf" d="M138 228l8-4v-9l-7-4-1 17zM138 228l8 5v-9l-8 4z"/><path fill="#9972b1" d="M139 203l13 7v-1l-13-7v1z"/><path fill="#b05e57" d="M139 201l13 7v-1l-13-7z"/><path fill="#edbbb6" d="M139 200l13 7v-1l-10-5-2-2-1 1z"/><path fill="#cd615e" d="M147 195z"/><path fill="#edbbb6" d="M148 195h-1 1z"/><path fill="#c2a0cb" d="M146 224v9l9 5v-15l-3-1v-1l-6 3z"/><path fill="#e4e4e4" d="M152 210l-13-7v7l8 5 3-2 2-1v-2z"/><path fill="#edbbb6" d="M148 195h-1l5 3v-1l-4-2z"/><path fill="#e4e4e4" d="M152 206v-7l-4-2-1 1-3 2-2 1 10 5z"/><path fill="#d8bedb" d="M147 215l-8-5v1l7 4h1zM139 202l13 7v-1l-13-7v1z"/><path fill="#cd615e" d="M152 199v-1a323 323 0 0 0-5-3v3l1-1 4 2z"/><path fill="#c2a0cb" d="M152 221v-8l-1 1-4 1h-1v9l6-3z"/><path fill="#e4e4e4" d="M152 210v2l1-1-1-1z"/><path fill="#d8bedb" d="M152 212l-2 1-3 2 4-1 1-1v-1z"/><path fill="#c2a0cb" d="M152 221v1l3 1v-4l-3 2zM146 233v11l5-1 4-3v-2l-9-5z"/><path fill="#9972b1" d="M153 211v-1l-1-1v1l1 1z"/><path fill="#ac207c" d="M163 200l-11-7v4l11 7z"/><path fill="#e9b2d1" d="M152 193l11 7v-1l-8-5-2-1h-1z"/><path fill="#c2a0cb" d="M152 213v8l3-2v-9l-3 3z"/><path fill="#d8bedb" d="M152 208v1l1 1v1l-1 1v1l3-3-3-2z"/><path fill="#b05e57" d="M156 218l-1 1v4l1 1v-6z"/><path fill="#b05e57" d="M156 224l-1-1v15h1v-14zM152 208l3 2v9l1-1v-8l-4-3v1z"/><path fill="#ed978e" d="M161 237c3-1 3-3 3-3l1-5-9-5v14s3 1 5-1z"/><path fill="#e4e4e4" d="M157 209l3-1 3-3-11-6v7l5 3z"/><path fill="#edbbb6" d="M157 209l-5-3v1l4 3h1v-1z"/><path fill="#e9b2d1" d="M163 189l-2-1-1 1 3 1v-1z"/><path fill="#e4e4e4" d="M161 191l-1 1-2 1-3 1 8 5v-7l-2-1z"/><path fill="#ed978e" d="M163 216v-1l-7 3v6l9 5v-12l-2-1z"/><path fill="#c25ba2" d="M160 192l1-1 2 1v-2l-3-1v3z"/><path fill="#ed978e" d="M163 215v-8l-2 1-4 2h-1v8l7-3z"/><path fill="#edbbb6" d="M163 204l-11-7v1l11 7v-1z"/><path fill="#cd615e" d="M152 198v1l11 6-11-7z"/><path fill="#edbbb6" d="M163 207v-2l-3 3-3 1v1a10 10 0 0 0 6-3z"/><path fill="#cd615e" d="M163 205z"/><path fill="#edbbb6" d="M163 205v2l2-2-2-1v1z"/><path fill="#ed978e" d="M163 215v1l2 1v-3l-2 1z"/><path fill="#c25ba2" d="M163 192l10 5v-1l-10-6v2z"/><path fill="#ed978e" d="M165 214v-9l-2 2v8l2-1z"/><path fill="#ac207c" d="M169 220v-9l-4 3v3l4 3z"/><path fill="#ac207c" d="M169 220l-4-3v12l4 3v-12z"/><path fill="#be4259" d="M163 189l10 6v-2l-10-5z"/><path fill="#f6a7b7" d="M163 188l10 5v-1l-7-3-2-2-1 1z"/><path fill="#e9b2d1" d="M163 190l10 6v-1l-10-6v1z"/><path fill="#ac207c" d="M169 211v-8l-6-3v4l2 1v9l4-3z"/><path fill="#e08bba" d="M173 211v-2l-4 2v9l9 5v-11l-5-3z"/><path fill="#e4e4e4" d="M173 197l-10-5v7l7 4 3-2v-4z"/><path fill="#e9b2d1" d="M170 203l-7-4v1l6 3h1z"/><path fill="#e08bba" d="M173 209v-7l-3 1h-1v8l4-2z"/><path fill="#f6a7b7" d="M173 183h-1-1l2 1v-1z"/><path fill="#f4f5f5" d="M172 185l-1 1-2 2-3 1 7 3v-7h-1z"/><path fill="#dd3361" d="M171 186l1-1h1v-1l-2-1v3z"/><path fill="#e9b2d1" d="M170 203l3-1v-1l-3 2z"/><path fill="#e4e4e4" d="M173 197v4l3-2-3-2z"/><path fill="#e08bba" d="M173 209v2l5 3v-8l-5 3zM178 228v-3l-9-5v12l5-1 4-3z"/><path fill="#dd3361" d="M173 185l13 8v-1l-13-8v1z"/><path fill="#c25ba2" d="M176 199v-1l-3-2v1l3 2z"/><path fill="#e9b2d1" d="M176 198v1l-3 2v1h1l4-4-5-3v1l3 2z"/><path fill="#e08bba" d="M173 209l5-3v-8l-4 4h-1v7z"/><path fill="#be4259" d="M180 215l1-10-3 1v8l2 1z"/><path fill="#be4259" d="M180 215l-2-1v11l2 1v-11zM181 198l-8-5v2l5 3v8l3-1v-7z"/><path fill="#be7b2a" d="M173 183l13 8v-1l-13-8z"/><path fill="#ffd498" d="M173 182l13 8v-1l-10-6-2-1h-1zM182 177l-1 1 5 3v-1l-4-3z"/><path fill="#f06d85" d="M188 223l1-1v-2l-9-5v11h3l5-3z"/><path fill="#f4f5f5" d="M186 193l-13-8v7l8 5a11 11 0 0 0 5-3v-1zM186 189v-7l-4-2-1 1-2 1-3 1 10 6z"/><path fill="#f6a7b7" d="M181 198h1l-1-1-8-5v1l8 5z"/><path fill="#f06d85" d="M188 223l-5 3a10 10 0 0 0 5-3zM186 202l-5 3-1 10 9 5a1326 1326 0 0 0 0-14l-3-2v-2z"/><path fill="#f6a7b7" d="M173 184l13 8v-1l-13-8v1z"/><path fill="#db8027" d="M186 182v-1l-5-3v3l1-1 4 2z"/><path fill="#f06d85" d="M186 202v-6h-1l-3 2h-1v7l5-3z"/><path fill="#db8027" d="M196 186l-10-5v1l10 5v-1z"/><path fill="#f4f5f5" d="M187 193h-1v1l1-1z"/><path fill="#f6a7b7" d="M186 194l-1 2-4 1 1 1 3-2h1v-2z"/><path fill="#f06d85" d="M186 202v2l3 2v-6l-3 2z"/><path fill="#dd3361" d="M187 193h1l-2-1v1h1z"/><path fill="#ffd498" d="M186 181l10 5v-1l-10-5v1z"/><path fill="#f6a7b7" d="M186 196l3-3v-1l-3-1v1l2 1h-1l-1 1v2z"/><path fill="#bd3a27" d="M186 180l10 5v-4l-10-5z"/><path fill="#f7a991" d="M186 176l10 5v-1l-7-3-2-2-1 1z"/><path fill="#f06d85" d="M189 193l-3 3v6l3-2v-7z"/><path fill="#be7b2a" d="M190 192l-4-2v1l3 1v8l1-1v-7z"/><path fill="#be7b2a" d="M190 199l-1 1v6l1 1v-8z"/><path fill="#be7b2a" d="M189 207v13l1 1v-14l-1-1v1z"/><path fill="#fbb650" d="M198 218l1-1v-5l-9-5v14h3l5-3z"/><path fill="#f4f5f5" d="M191 192a10 10 0 0 0 5-3v-2l-10-5v7l5 3z"/><path fill="#ffd498" d="M186 190l4 2h1l-5-3v1z"/><path fill="#fbb650" d="M196 199v-2l-6 2v8l9 5v-10-1l-3-2zM198 218l-5 3a9 9 0 0 0 5-3z"/><path fill="#ffd498" d="M191 192l4-1h1v-2l-2 1-3 2z"/><path fill="#f7a991" d="M196 171h-1-1l2 1v-1z"/><path fill="#f4f5f5" d="M195 173l-1 1-2 2-3 1 7 3v-7h-1z"/><path fill="#da3126" d="M196 172l-2-1v3l1-1h1v-1z"/><path fill="#fbb650" d="M195 191a10 10 0 0 1-5 1v7l6-2v-6h-1z"/><path fill="#f4f5f5" d="M196 187v2l1-1-1-1z"/><path fill="#fbb650" d="M196 197v2l3 2v-6l-3 2z"/><path fill="#db8027" d="M197 188v-1l-1-1v1l1 1z"/><path fill="#ffd498" d="M196 191l3-4-3-2v1l1 1v1l-1 1v2z"/><path fill="#da3126" d="M196 173l9 6 1-1-10-6v1z"/><path fill="#fbb650" d="M199 195v-8l-3 4v6l3-2z"/><path fill="#bd3a27" d="M203 214v-11l-4-2v11l4 2z"/><path fill="#f7a991" d="M196 172l10 6v-2l-10-5v1z"/><path fill="#be4259" d="M196 171l10 5-10-6z"/><path fill="#f6a7b7" d="M196 170l10 6v-1l-7-4-2-1h-1z"/><path fill="#bd3a27" d="M203 203l1-11-5 3v6l4 2z"/><path fill="#f6a7b7" d="M206 167v-2h-1l-1 1 2 1z"/><path fill="#bd3a27" d="M204 186l-8-5v4l3 2v8l5-3v-6z"/><path fill="#f27048" d="M205 193v-2l-1 1-1 11 9 5v-11l-7-4z"/><path fill="#f27048" d="M203 203v11h2l7-3v-1-2l-9-5z"/><path fill="#f4f5f5" d="M205 185v-6l-9-6v7l8 5h1zM206 168h-1l-1 1-2 1-3 1 7 4v-7z"/><path fill="#f7a991" d="M204 186h1v-1h-1l-8-5v1l8 5z"/><path fill="#f27048" d="M205 186h-1v6l1-1v-6 1z"/><path fill="#f7a991" d="M204 185h1v0h-1z"/><path fill="#dd3361" d="M205 168h1v-1l-2-1v3l1-1z"/><path fill="#f4f5f5" d="M210 181l-5-2v6l3-2 2-2z"/><path fill="#f27048" d="M212 211l-7 3 4-1 3-2zM205 191v2l7 4v-10l-7 4z"/><path fill="#dd3361" d="M219 174l-13-7v1l13 7v-1z"/><path fill="#da3126" d="M210 181h1l-5-3-1 1 5 2z"/><path fill="#be7b2a" d="M219 172l-13-7v1l13 7z"/><path fill="#ffd498" d="M206 165l13 7v-1l-10-5-2-2-1 1z"/><path fill="#f27048" d="M212 187v-7s-1 3-4 4l-3 1v6l7-4z"/><path fill="#f7a991" d="M208 184c3-1 4-4 4-4l-7-4v2l6 3h-1l-2 2-3 2 3-1z"/><path fill="#be4259" d="M213 187h-1v10l1 1v-11z"/><path fill="#be4259" d="M213 198l-1-1v11l1 1v-11zM212 180v7h1v-7l-7-4h-1l7 4z"/><path fill="#ffd498" d="M214 160l5 3v-1l-4-2h-1z"/><path fill="#f06d85" d="M213 198v11h2l6-4h1v-2l-9-5z"/><path fill="#f4f5f5" d="M214 180a10 10 0 0 0 5-3v-2l-13-7v7l8 5zM214 163l-3 2-2 1 10 5v-7l-4-2-1 1z"/><path fill="#f6a7b7" d="M214 180l-8-5v1l7 4h1z"/><path fill="#f06d85" d="M219 184l-6 3v11l9 5a4027 4027 0 0 1 0-15l-3-2v-2zM221 205l-6 4 3-1 3-3z"/><path fill="#f6a7b7" d="M206 167l13 7v-1l-13-8v2z"/><path fill="#db8027" d="M214 163l1-1 4 2v-1l-5-3v3z"/><path fill="#f06d85" d="M218 179a10 10 0 0 1-5 1v7l6-3v-6l-1 1z"/><path fill="#f4f5f5" d="M220 176l-1-1v2l1-1z"/><path fill="#f6a7b7" d="M218 179l1-1v-1l-2 1-3 2 4-1z"/><path fill="#f06d85" d="M219 184v2l3 2v-6l-3 2z"/><path fill="#dd3361" d="M220 175l-1-1v1l1 1v-1z"/><path fill="#f6a7b7" d="M222 175l-3-2v1l1 1v1l-1 1v1l3-3z"/><path fill="#f7a991" d="M219 158l11 7v-1l-8-5-2-1h-1z"/><path fill="#f06d85" d="M222 182v-7l-3 3v6l3-2z"/><path fill="#be7b2a" d="M222 182v6l1 1v-8l-1 1z"/><path fill="#be7b2a" d="M222 190v13h1v-14l-1-1v2zM219 173l3 2v7l1-1v-6l-4-3v1z"/><path fill="#fbb650" d="M231 200v-1-5l-8-5v14h2l6-3z"/><path fill="#f4f5f5" d="M219 171l5 3 3-1 3-3-11-6v7z"/><path fill="#ffd498" d="M219 172l4 3h1v-1l-5-3v1z"/><path fill="#e4e4e4" d="M225 147l-119 64 7-4 5 4 19-10 1-1 9-5h1l82-45-5-3z"/><path fill="#fbb650" d="M231 200l-6 3 3-1 3-2z"/><path fill="#f7a991" d="M227 153l3 2v-1l-2-1h-1z"/><path fill="#f4f5f5" d="M227 157l-2 1-3 1 8 5v-7l-2-2-1 2z"/><path fill="#fbb650" d="M231 177l-8 4v8l8 5 1-16-1-1z"/><path fill="#db8027" d="M230 170l-11-7v1l11 6z"/><path fill="#da3126" d="M228 155l2 2v-2l-3-2v4l1-2z"/><path fill="#bd3a27" d="M219 162l11 7v-4l-11-7v4z"/><path fill="#fbb650" d="M230 171l-2 2-4 2h-1v6l8-4-1-6z"/><path fill="#ffd498" d="M230 171v-2l-11-7v1l11 7-3 3-3 1v1a11 11 0 0 0 6-4zM230 169a281 281 0 0 0 2 0h-2z"/><path fill="#fbb650" d="M232 178v-9l-2 2 1 6 1 1z"/><path fill="#bd3a27" d="M236 181l-4-3-1 16 5 3v-16z"/><path fill="#bd3a27" d="M236 168l-6-3v4h2v9l4 3v-13z"/><path fill="#f7a991" d="M242 161l-12-7v1l13 8-1-2z"/><path fill="#f27048" d="M236 181v16h1l7-4 1-1v-5l-9-6z"/><g fill="#c9c9c9"><path d="M137 201l-19 10 11 9v-15h1l2 1 3-1 2-1v-3zM144 200l3-2v-3l-9 5 1 1v-1l1-1 2 2 2-1zM152 243l-6 1-8-5v12l45-25h-2l-3-1v3l-3 3-6 1-4-3v5l-4 3c-2 2-5 1-5 1h-1v2l-3 3zM193 221h-2l-2-1v2l-1 1 5-2zM205 214h-1l-5-2v5l-1 1 7-4zM212 211l3-2h-2l-1-1v3zM221 205l4-2h-3v2h-1zM214 160h1l4 2v-4h1l2 1 3-1 2-1v-4h1l2 1v-4l-82 45 4 2v-4h1l2 1 3-1 2-1v-3l1-1 2 1v-1l1-1 2 2 3-1 2-2v-3h2v-1h1l2 1 3-1 2-1v-3l1-1 4 3v-4l1-1 2 2 3-1 2-2v-3h2v-1h1l2 1 3-1 2-1v-3l1-1h1l1-1 2 2 2-1 3-2v-3zM242 161l-12-11v4l12 7zM245 187l5 3s2-11-5-23v-1 21z"/><path d="M250 190l-5-3v5l-1 1 6-3zM232 199l-1 1 6-3h-1l-4-3v5z"/></g><path fill="#f4f5f5" d="M230 164l7 3 3-1 3-2-13-7v7z"/><path fill="#f7a991" d="M237 168v-1l-7-3v1l6 3h1z"/><path fill="#f27048" d="M244 193l-7 4 4-2 3-2z"/><path fill="#da3126" d="M243 163l-13-8v2l13 7v-1zM243 163z"/><path fill="#f27048" d="M241 167l-4 1h-1v13l9 6v-21l-1-2-3 3z"/><path fill="#f7a991" d="M240 166l-3 1v1l4-1 3-3-1-1v1l-3 2z"/><path fill="#f7a991" d="M243 163l1 1 1-1-3-2 1 2z"/><path fill="#f27048" d="M245 166v-3l-1 1 1 2z"/><path fill="#e4e4e4" d="M250 190l7-4v-3c0-3 0-11-4-20-7-13-21-20-21-20l-7 4 5 3 12 11 3 2v4c7 12 5 23 5 23z"/><path fill="#d3d3d3" d="M228 202l-3 1-4 2a9 9 0 0 1-6 4l-3 2-3 2-4 1-7 4a9 9 0 0 1-5 3l-5 2a9 9 0 0 1-5 3l-45 25-7 3-2 1-25-15v8l25 15 130-71v-7l-2 1-7 4-6 3-3 3-4 1-6 3-3 2z"/><path fill="#c9c9c9" d="M259 185l-2-2v3l2-1z"/></g><g><path fill="#8e97aa" d="M215 304l37 22 10-5 1-6-12 5-33-18h1l-4 2z"/><path fill="#76829b" d="M218 302l33 18 12-5 1-6-9-6v5s-1 4-4 3v-1l-15-9-1-7-16 8h-1z"/><path fill="#687589" d="M219 217l1 52 14-7v-3h5l-20-42z"/><path fill="#76829b" d="M219 217l20 42h1l18-9 10 6 13-6h1l-63-33z"/><path fill="#8e97aa" d="M219 217l63 33 1-3-60-32s-3 0-4 2z"/><path fill="#687589" d="M220 269v5l14-6v-6z"/><path fill="#5e6a7e" d="M231 280l4 2-1-14-14 6 11 6z"/><path fill="#838e93" d="M227 286h0z"/><path fill="#76829b" d="M227 281v5h1l4-3-4-2h-1z"/><path fill="#838e93" d="M227 281h1-1z"/><path fill="#a8aebe" d="M231 280l-3 1 4 2 3-1-4-2z"/><path fill="#76829b" d="M228 286l7 4v-5l-3-2-4 3z"/><path fill="#a8aebe" d="M234 259v3l6-3h-6z"/><path fill="#a8aebe" d="M235 282l16 9-1-23-3-4-5-4-2-1-6 3v6l1 14zM235 282l-3 1 3 2v-3z"/><path fill="#5e6a7e" d="M235 282z"/><path fill="#a8aebe" d="M235 285v9l2-1 14 8v-10l-16-9v3z"/><path fill="#a8aebe" d="M235 294l1 7 15 9v-9l-14-8-2 1z"/><path fill="#76829b" d="M258 250l-18 9 2 1 5 4 21-8-10-6z"/><path fill="#818da2" d="M277 261l-9-5-21 8 3 4 1 7 16 17 1-6 4 4a233 233 0 0 0 10 8v-24-10l-5-3z"/><path fill="#8b96a9" d="M250 268l1 23 2 1-2-17-1-7z"/><path fill="#838e93" d="M251 310v0z"/><path fill="#8b96a9" d="M254 295l-1-3-2-1v10l4 2v-2l-1-6zM251 301v10c3 1 4-3 4-3v-5l-4-2z"/><path fill="#5e6a7e" d="M267 292l-16-17 2 17 13 7 1-7z"/><path fill="#a8aebe" d="M266 299l-13-7 1 3 12 6v-2z"/><path fill="#76829b" d="M254 295l1 6 10 5 1-5-12-6z"/><path fill="#8e97aa" d="M262 321l4-2 1-5-4 1-1 6z"/><path fill="#76829b" d="M263 315l4-1 1-4-4-1-1 6zM266 301l-1 5 3 2 1-5-3-2z"/><path fill="#8e97aa" d="M267 314l-1 5 7-3s0-2-3-4l-3 2z"/><path fill="#a8aebe" d="M266 299v2l3 2 1-2-4-2z"/><path fill="#5e6a7e" d="M266 299l4 2 1-6-4-3-1 7z"/><path fill="#76829b" d="M268 310l-1 4 3-2h1l-3-2z"/><path fill="#818da2" d="M267 292l4 3 1-5-4-4-1 6zM268 256l9 5 4-11-13 6z"/><path fill="#76829b" d="M269 303l-1 5 17 10 1-6-17-9z"/><path fill="#a8aebe" d="M270 301l-1 2 17 9-1-5h-2v1l-1-1-12-6z"/><path fill="#5e6a7e" d="M271 295l-1 6 12 6z"/><path fill="#818da2" d="M282 299v-1a100 100 0 0 1-10-8l-1 5 11 12 1 1v-1a1316 1316 0 0 1-1-8zM277 261l5 3v-14h-1l-4 11z"/><path fill="#76829b" d="M282 250h-1 1z"/><path fill="#8e97aa" d="M282 250v14l4 2v-18l-3-1-1 3zM286 266l-4-2v10l2-2h2v-6z"/><path fill="#8e97aa" d="M282 274v24h1l3-3v-23h-2l-2 2z"/><path fill="#818da2" d="M282 299z"/><path fill="#8e97aa" d="M282 298v1l1-1h-1zM282 299l1-1-1 1zM284 301v-2l-1-1-1 1 1 8h2l-1-6z"/><path fill="#150e39" d="M283 247l3 1v18l5 3 10-20v-1c-4-9-3-21 0-30a192 192 0 0 0-18 29z"/><path fill="#8e97aa" d="M283 298l3-2v-1l-3 3zM283 298l1 1v2l2-2v-3l-3 2zM286 305v-2-4l-2 2a309 309 0 0 0 2 5v-1z"/><path fill="#838e93" d="M291 269l-5-3v6l3-1 2-2z"/><path fill="#a8aebe" d="M286 306l-1 1 1 5 1-6h-1z"/><path fill="#76829b" d="M286 312l-1 6 2 1v-2l-1-5z"/><path fill="#a8aebe" d="M286 312z"/><path fill="#fab685" d="M294 296v-2l-4 1 4 1zm8-3l-1 3a182 182 0 0 1 5 4v4h-4l-7-1-2 1-1-1-1-2-3-2v3l-2 1v-4-3-1l5-5 9 3h2z"/><path fill="#a8aebe" d="M290 306h-3l-1 6 4 2 2-9-2 1zM286 303v2l2-1v-2l-2 1z"/><path fill="#fab685" d="M286 305v1h1l1-2-2 1z"/><path fill="#76829b" d="M287 317v2l2 1 1-6-4-2 1 5z"/><path fill="#fab685" d="M290 301l-2 3-1 2h3l2-1v-2l-1-2h-1z"/><path fill="#a8aebe" d="M288 302v2l2-3-2 1z"/><path fill="#fab685" d="M288 302l2-1h1l-3-2v3z"/><path fill="#76829b" d="M290 314l-1 6 2 1v-6l-1-1z"/><path fill="#a8aebe" d="M292 305l-2 9 1 1 12-4a108 108 0 0 1-10-7l-1 1z"/><path fill="#838e93" d="M291 321z"/><path fill="#687589" d="M291 315v6l14-6-1-3-1-1-12 4z"/><path fill="#fab685" d="M292 305l1-1-1-1v2z"/><path fill="#838e93" d="M294 294l-4 1 4 1v-2z"/><path fill="#a8aebe" d="M306 307c-2 0-3-1-4-3l-7-1-2 1a212 212 0 0 0 10 7l13-3-2-1a155 155 0 0 1-2-2 189 189 0 0 1-6 2z"/><path fill="#150e39" d="M300 293h2-2z"/><path fill="#211c51" d="M301 218c-3 9-4 21 0 30v1l2 4 8 5-3-9-2-15v-6l5-1-1-2v-2h2l-3-2-7-6-1 3z"/><path fill="#150e39" d="M301 293l1-1 1-1h-1l-2 2h1z"/><path fill="#cbe6f3" d="M301 293h1v-1l-1 1z"/><path fill="#171043" d="M301 248v0zM301 249l2 28 12 6-1-15v-2l-3-8-8-5-2-4z"/><path fill="#fab685" d="M302 293l-1 3a182 182 0 0 1 5 4c-1-3-2-6-4-7z"/><path fill="#29275f" d="M302 214v1l7 6 3 2 4-3-2-2 1-6c-5-1-11 1-13 2z"/><path fill="#cbe6f3" d="M302 292v1c2 1 3 4 4 7l1 1 2 2c1-4-1-9-4-12l-3 1z"/><path fill="#150e39" d="M302 292l3-1h-2l-1 1z"/><path fill="#838e93" d="M303 291z"/><path fill="#687589" d="M316 308l-13 3 1 1 1 3 12-5v-1l-1-1z"/><path fill="#150e39" d="M306 305v-1h-4c1 2 2 3 4 3l2-1 1-2-3 1z"/><path fill="#252256" d="M305 291c3 3 5 8 4 12l3 2 2-1 1-19-12 6h2z"/><path fill="#4a4573" d="M306 228v6l2 15 3 9 1 1-1-3a65 65 0 0 1 2-26 16 16 0 0 1 2-5 58 58 0 0 1-3-2h-2v2l1 2-5 1z"/><path fill="#cbe6f3" d="M306 304v1l3-1v-1l-2-2-1-1v4z"/><path fill="#252256" d="M312 305a224 224 0 0 1-3-1l-1 2 4-1z"/><path fill="#801833" d="M311 244a65 65 0 0 0 1 15l1 1c-2-9-1-20 3-28h-1c-2 4-4 8-4 12z"/><path fill="#4a4573" d="M312 259l-1-1 3 8-2-7z"/><path fill="#cbe6f3" d="M311 243v1c0-4 2-8 4-12l1-4h-1v-2l-2 4-2 13z"/><path fill="#801833" d="M313 260l-1-1 2 7v-2l-1-4z"/><path fill="#4a4573" d="M312 223h1l1 1 1 1 4-3-3-2-4 3z"/><path fill="#838e93" d="M312 305zM312 305l2 1v-2l-2 1z"/><path fill="#9f2542" d="M316 232c-4 8-5 19-3 28l1 1 1-7v-10l2-11-1-1zM313 260l1 4-1-4z"/><path fill="#a8aebe" d="M312 305l2 2v-1l-2-1z"/><path fill="#9f2542" d="M314 261l-1-1a77 77 0 0 1 1 6v-5z"/><path fill="#a8aebe" d="M314 307l2 1h1l-3-2v1z"/><path fill="#801833" d="M314 266z"/><path fill="#4a4573" d="M315 254l-1 7h1c1-5 3-9 8-12l9-4v-6c1 0 3 2 4 1l1-1-8-5-7 7a41 41 0 0 0-7 13zM314 261v5l1-4v-1h-1z"/><path fill="#9f2542" d="M314 266zM314 266v0z"/><path fill="#1c1749" d="M314 266a24 24 0 0 0 0 2l1 15 2 1 15-6 2-6-19-11v1l-1 4z"/><path fill="#fab685" d="M315 212l-1 6 2 2a14 14 0 0 0 5 2l8-2v-10-4l1-4c-5-1-11-4-13-8l-2 6v5h-1l1 5v2z"/><path fill="#30120b" d="M315 195l-1 10h1v-5l2-6c2 4 8 7 13 8h2v4c1 2 2 4 1 8l2-2 1-4c1-1 4 0 3 2s-1 5-3 6v2l2-1 1-3 8-14c2-4-1-10-5-13-9-7-26-4-27 8z"/><path fill="#e8f6fd" d="M315 226v2h1l1-1-2-2v1z"/><path fill="#cbe6f3" d="M315 244v10l7-13 7-7-2-1-5-1-1-2a14 14 0 0 1-4 3l-2 11z"/><path fill="#e8f6fd" d="M315 226v-1 1z"/><path fill="#252256" d="M315 285l-1 19 22-9-18-11-3 1z"/><path fill="#6b0f26" d="M315 232h1l3-4-2-1-1 1-1 4z"/><path fill="#687589" d="M317 308h-1l1 1v-1z"/><path fill="#e8f6fd" d="M315 225l2 2 3-1v-1-1-2h-1l-4 3z"/><path fill="#891b38" d="M316 232l1 1 4-3v-1l-2-1-3 4z"/><path fill="#211c51" d="M323 249c-5 3-7 7-8 12l19 11 9-25 2-3-8-5-1 1c-1 1-3-1-4-1v6l-9 4z"/><path fill="#252256" d="M332 278l-14 6 18 11 2-1v-5-11-3l-4-3-2 6z"/><path fill="#6b0f26" d="M317 227l2 1 1-2-3 1z"/><path fill="#891b38" d="M320 226l-1 2 2 1-1-3z"/><path fill="#e8f6fd" d="M320 226l1 3 1 1 5 3 3-1 5-3c1-1 2-3 1-5h-1c-3 5-15 4-15 1v1z"/><path fill="#f79b6a" d="M320 224v1c0 3 12 4 15-1l1-4v-2-2l-1-1-3 4-3 1a33 33 0 0 1-9 2v2z"/><path fill="#e8f6fd" d="M322 230h-1l1 2 5 1-5-3z"/><path fill="#cbe6f3" d="M327 233l2 1a211 211 0 0 0 6-5l-5 3-3 1z"/><path fill="#f8a773" d="M329 210v10l3-1 3-4v-3l-2 2c1-4 0-6-1-8v-4h-2l-1 4v4z"/><path fill="#4a4573" d="M331 233l-2 1 8 5 1-4c1-3 3-8 2-11l-4-4-1 4h1c1 2 0 4-1 5l-4 4z"/><path fill="#f8a773" d="M335 215l1 1c2-1 2-4 3-6s-2-3-3-2l-1 4v3z"/><path fill="#4a4573" d="M336 218v2a812 812 0 0 1 0-2z"/><path fill="#1c1749" d="M336 295l2 1v-2l-2 1z"/><path fill="#29275f" d="M337 239l8 5c2-2 5-5 9-4 2 0 3 0 4 2l-1-2-17-16c1 3-1 8-2 11l-1 4z"/><path fill="#252256" d="M343 247l-9 25 4 3c0-13 3-22 9-30l-2-1-2 3z"/><path fill="#150e39" d="M338 296l14 8-1-12c0-5 4-18 5-24l2-13c-3 10-11 31-14 35v1l-6 3v2z"/><path fill="#252256" d="M344 290c3-4 11-25 14-35v-1-11c-1-2-2-3-4-3s-6 3-7 5c-6 8-9 17-9 30h1l-1 3v16l6-3v-1z"/><path fill="#150e39" d="M339 275h-1v3l1-3z"/><path fill="#252256" d="M345 244l2 1c1-2 5-5 7-5-4-1-7 2-9 4z"/><path fill="#150e39" d="M358 242c-1-2-2-2-4-2 2 0 3 1 4 3v-1z"/><path fill="#252256" d="M358 243v11c2-5 2-9 0-11z"/></g></svg>