<?xml version="1.0" encoding="utf-8"?>
<!-- Generator: Adobe Illustrator 22.1.0, SVG Export Plug-In . SVG Version: 6.00 Build 0)  -->
<svg version="1.1" id="Layer_1" xmlns="http://www.w3.org/2000/svg" xmlns:xlink="http://www.w3.org/1999/xlink" x="0px" y="0px"
	 viewBox="0 0 566.9 566.9" style="enable-background:new 0 0 566.9 566.9;" xml:space="preserve">
<style type="text/css">
	.st0{fill:#1A9F49;}
	.st1{fill:#ED3534;}
	.st2{fill:#FAA819;}
	.st3{fill:#878787;}
	.st4{fill:#ED1C24;}
	.st5{fill:#2E3589;}
	.st6{fill:#FFF200;}
	.st7{fill:#EC2227;}
	.st8{fill:none;stroke:#000000;stroke-miterlimit:10;}
	.st9{fill:#FFFFFF;}
	.st10{fill:#F3F3F3;}
	.st11{fill:#F1F2F2;}
	.st12{fill:none;}
</style>
<g>
	<path class="st7" d="M131.6,245.9c0.6,0.4,1.3,0.8,1.9,1.2c10.1-5.9,22.2-11.3,35.9-15.8c-0.6-2-1-4.1-1.1-6.2c0-0.2,0-0.4,0-0.6
		c0-0.5,0-1,0.1-1.6c-16.6,4.9-31.3,10.9-43.5,17.6C126.2,242.9,128.8,244.1,131.6,245.9z"/>
	<path class="st7" d="M480.3,290.3c0,10-4.8,19.6-13.5,28.4c0,1,0,2.1,0,3.1c9.7-9.7,15.1-20.4,15.1-31.6c0-11.1-5.3-21.8-15-31.5
		c-0.2,0.8-0.5,1.7-0.9,2.5C475.3,270.1,480.3,279.9,480.3,290.3z"/>
	<path class="st7" d="M439.4,337.7c-34.8,17.7-88.6,29.1-149,29.1c-104.9,0-190-34.2-190-76.5c0-12.2,7.2-23.8,19.9-34.1
		c-0.7-0.4-1.2-0.7-1.5-0.8l-0.2-2.3c0,0-1.9-2-4.1-4.2c-0.4-0.4-0.7-0.9-1-1.3c-2.1,1.5-4.1,3-6,4.5c0.4,0.3,0.9,0.7,1.4,1
		c1.4,1,2.9,1.9,2.2,2.8c-1.3,1.6-3.1,0.1-3.1,0.1s-1-0.8-2.1-1.4c-0.3-0.2-0.6-0.3-0.8-0.5c-12.8,10.9-20,23.2-20,36.1
		c0,45.6,88.8,82.5,198.4,82.5c65.9,0,124.3-13.4,160.4-34c-0.5-0.1-1-0.2-1.8-0.3C440.8,338.1,439.9,337.9,439.4,337.7z"/>
	<path class="st7" d="M351.9,217.9c0.7-1.7,1.5-3.3,2.6-4.8c-15.5-2.5-31.8-4.2-48.9-4.9c0.8,1.9,1.3,3.9,1.6,6
		C322.7,214.6,337.7,215.9,351.9,217.9z"/>
	<path class="st7" d="M262.1,214.6c0.2-2.3,0.8-4.6,1.7-6.6c-18.5,0.8-36.3,2.6-53,5.3c1.2,2.1,2.1,4.5,2.5,7
		C228.7,217.6,245,215.6,262.1,214.6z"/>
	<path class="st7" d="M395.8,226.6c11.7,3.2,22.5,6.8,32.2,10.9c0.8-1,1.8-1.9,2.8-2.7c-10.5-4.8-22.3-9.1-35.3-12.8
		c0.2,1.3,0.4,2.7,0.4,4.1C395.8,226.3,395.8,226.4,395.8,226.6z"/>
	<path class="st5" d="M293.8,287.3c-2.4,2.4-1.2,4.2-2.6,4.6c-2.3-0.3-1.9,1.8-2.1,2.8c-0.2,1,0.6,3.2,1,4.2c0.5,1,1.7,1.2,3.2,0.5
		c1.5-0.6,1.9,0.1,2.2,0.8c0.3,0.7,0.6,4.4,0.3,5.9c-0.2,1.5-1,3.4-1.8,4.2c-0.8,0.8-0.9,1.6-0.6,3.4c0.3,1.8,1.8,1.8,3,1.6
		c1.2-0.2,5.5,0,6.6,0.2c1.1,0.3,0.5-0.9,0.7-1.9c0.1-1.1-0.5-1.1-1.1-1.7c-0.6-0.6-0.8-0.9,0.3-2.8c1.1-1.9,0.2-6,0.2-6.7
		c0-0.7,0.5-1.7,0.6-2.5c0.1-0.8-0.1-1.7-0.9-3.2c-0.8-1.5,0.7-2.5,1.8-3c1.1-0.5,2.3,0.4,3,1.2c0.7,0.8,0.6,1.6-0.5,3.1
		c-1.1,1.5,0.5,3.1,2.9,4.4c2.3,1.3,1.5,2.8,1.5,4.6c0,1.7,1.1,3,2.1,3.7c1,0.7,0.8,1.8,1.1,2.7c0.3,0.9,1,0.8,1,0.8
		s3.1-0.1,4.3,1.2c1.2,1.3,1.4,0.8,2.1,0.8c0.8,0,1.1-0.6,1.6-1.1c0.5-0.5,1.3-1.3,2.3-1.4c1-0.1,0.9-0.5,0.9-0.5s-0.7-1-1.7-1.1
		c-1-0.1-0.6-0.8-0.7-1.3c-0.1-0.6,0.4-0.6,0.4-0.6s0.5,0,1.1,0c0.6,0,0.2-2.2,0.2-3c0-0.8-0.6-0.2-1-0.3c-0.4-0.1,0-0.9,0-0.9
		s1-0.9,1.3-1.4c0.3-0.5-1-1.5-1.6-1.5c-0.6-0.1-2.9,0.5-2.9,0.5c-0.5-1.1-3.4-2-3.4-2s-0.2-1.9-0.2-2.4c-0.1-0.5,1-1.2,1.5-1.7
		c0.5-0.5-0.1-0.8-0.1-0.8c-0.6-1.3-7-7.2-7-7.2l3.2-3.2c1.8,0.3,4.6-1.3,5.1-1.8c0.4-0.5,0.8-0.5,1,0.5c0.2,1,2.3,1,3.8,1.4
		c1.5,0.4,1.7-0.7,2.5-1.1c0.7-0.4,0.7-1.4,0.7-2c-0.1-0.6-0.5-0.6-0.5-1.3c0-0.6-0.2-0.9,0.3-1.4c0.5-0.5,0.2-1,0.2-1
		c-0.8-1.2-3.5-1.5-4.5-1.5c-1,0-2.1,0.6-2.1,0.6c-3.4,0-5.5,1.3-6.3,2c-0.8,0.7-1,0.2-1,0.2c0-1.5-2.5-1.5-2.5-1.5
		c-0.9-0.1-0.7,0.7-1.4,1.5c-0.5,0.7-1.5,1.4-2.1,1.8c-1.5,1-2.2,0-2.2,0s-1.5-1.5-2.2-2.2c-0.7-0.7-1-0.7-1-0.7h-1.9l-0.5-5.6
		c0.7-1.7,2.8-3.1,2.8-3.1s17.6,0.7,18.7,0.2c1.2-0.4,2.6,0.3,3.1,0.8c0.5,0.5,0.9,0.9,1.9,0.5c1-0.4,5.6-0.7,7-0.5
		c1.4,0.3,1.8-0.6,1.8-0.6s5.4-6.6,6.5-7.6c1-1-0.8-3-1.4-3.6c-0.6-0.6-1.2,0.3-1.2,0.3l-4.6,4l-4,2.8c-3.4-0.9-9-0.6-9-0.6
		c-2.5-1.4-8.4-1-10.2-2.3c-1.9-1.3-4.7-1.4-5.8-1c-1.1,0.4-0.9,2-2.1,3.1c-1.2,1.1-0.5,0.6-1.5-0.6c-1-1.2-1.5,0.2-1.5,0.2
		s-3.3,4.4-4,5.4c-0.7,1-0.5,4.4-0.3,5.6c0.2,1.3-0.9,1.9-0.9,1.9c-3.8,2.7-3,5.9-2.7,6.5C293.9,286.3,294.5,286.6,293.8,287.3z
		 M316.1,309.9c0.3-0.4,0.8-0.1,0.8-0.1s0.1-1.5,0.1-2.2c0-0.5,1.1-0.8,2-0.8c0.5,0,0.9-0.1,1.1,0.4c0.5,1.5-0.4,0.7-1.4,1.4
		c-1,0.7-0.1,1.8-0.5,2.6c-0.2,0.4-0.7,0.2-1.2,0.2c-0.5,0-1,0.1-1.1-0.1C315.8,311.1,315.9,310.4,316.1,309.9z"/>
	<path class="st5" d="M118.6,253l0.2,2.3c0.2,0.1,0.8,0.4,1.5,0.8c2.5,1.4,6.9,3.8,6.9,3.8c0.3,0.2,1,0.7,1.2,1.3
		c0.3,0.6,0.2,1.2,0.3,2c0.2,1.1,0.8,2.2,1.1,3.3c0.6,2.1,1.3,3.8,1.3,3.8c0.3,1.4,2.1,1.6,3.6,2.5c1.1,0.6,2,1.6,2,1.6
		c0.1,0.3,0.8,1.4,1.7,2.5c0.6,0.7,1.3,1.3,1.9,2.2c0.9,1.2,1.4,2.8,2.1,3.9c1.2,1.9,2.3,3,2.3,3c0.4,5.3,1.4,4.1,2.9,6.1
		c1.5,2,3.5,4,5.1,5.3c2,1.6,3.6,2.2,3.6,2.2c-0.1,0,0.2,2.1,0.2,2.1c1,1.1,3.5,3.1,5.1,4c1.1,0.6,1.6,0.4,1.6,0.4s0.9,1.5,1.7,2.3
		c0.8,0.8,2.3,0.8,2.3,0.8s1.9,1.2,4.6,3.5c2.6,2.3,3,3.5,4.2,4.2c1.7,0.4,1.2-1.5,1.2-2.1c0-0.6,0.8-0.3,0.8-0.3
		c2.2,1.5,3.8-1.1,3.8-1.1l0.9,0.1c0.2,1,0.8,1.9,1.5,2.1c0.9,0.1,1.9-0.8,2.2-2.3c0.3-1.5,0.1-3.6,0.1-5.7c0-4.4-0.2-9-0.2-9
		c1.2-0.7,2-2.3,2-3.2c0-0.9,0.3-1,0.3-1l1,0.8h5.2c-0.3-5.1-2.9-4.1-4.3-5.1c-1.4-0.9-1.1-4.6-1.1-4.6c-7.1-4-7.9,0.5-7.9,0.5
		c-2.5-0.4-3.1,1.5-3.1,1.5l-2.2-1.5c0.4-6-3.1-5.9-5.6-6.3c-1.5-0.2-2.7-0.7-2.7-0.7c-1.1-0.6,0.3-2,0.9-3c0.3-0.6,0-1.1,0-1.1
		c-0.4-0.5,0-0.7,0.5-1.1c0.5-0.4,1.1-1,1.1-1c0.5-0.6-1.5-2.3-3.1-3.2c-1-0.5-1.8-0.7-2-0.7c-0.6-0.2-0.6-0.5-0.6-0.5
		c0.7-4.9-4.8-4.4-4.8-4.4c2.4-3.6-5.8-3.2-5.8-3.2s-0.3-2.4-0.8-3.1c-1-1.1-4.5-1-4.5-1c-2.4-1.6-4.2-0.7-5.2-0.1
		c-1.5,0.3-1.1-0.8-1.1-0.8c-0.2-2.7-4.7-5.7-9.2-8.6c-0.6-0.4-1.3-0.8-1.9-1.2c-2.8-1.8-5.4-3-6.7-5.4c0-0.1-0.1-0.1-0.1-0.2
		c-1.8-3.7-3.5-4.4-5.8-5.7c-2.3-1.2-10.4-0.7-10.4-0.7c-4-4.5-8-2.9-8-2.9c-0.3,2.2-0.3,4,0.4,5.6c1.4,2.9,4.3,5.3,7.2,7.2
		c1.4,0.9,2.8,1.4,4,2.2c0.7,0.5,1,0.9,1.3,1.4c0.3,0.4,0.5,0.9,1,1.3C116.7,251,118.6,253,118.6,253z"/>
	<path class="st5" d="M108,255.9c0,0,1.9,1.5,3.1-0.1c0.7-0.9-0.8-1.9-2.2-2.8c-0.5-0.4-1-0.7-1.4-1c-0.4-0.3-0.7-0.5-0.7-0.5
		s-1.4-0.3-2.9-0.3c-1.2,1.3-0.3,2.1,1.1,2.9c0.3,0.2,0.5,0.3,0.8,0.5C106.9,255.2,108,255.9,108,255.9z"/>
	<path class="st5" d="M118,261.6c-1.8,0-3,0.2-3,0.8c0,0.6-0.3,1.1,1.8,1.8l0,0.8l2.4,2.4c0,0-0.3,1.7,0.7,1.7c1,0,2.3,0.3,2.3-0.6
		c0-0.9,0-3.2-1-4.4C120.2,262.8,119.7,261.6,118,261.6z"/>
	<path class="st5" d="M126.6,272.4h3.4c0,0-0.4-2.1-1.8-2.1c-1.4,0-1.3,1.1-3,1.5c-1.2,0.8-0.2,1.3-0.1,1.8v2c0,0-1.1,0.4-0.8,1.2
		c0.3,0.8,1.4,0.9,1.8,0.3c0.5-0.6,1.6-1.6,1.6-2.1C127.7,273,126.5,273.7,126.6,272.4z"/>
	<path class="st5" d="M131,280.1c-0.3-0.9-0.7-0.9-2-1.1c-1.3-0.2-1.5,0.3-1.5,0.3c-1.6,3.7,2.3,6,2.3,6s1.9,1.4,3.5,0.2
		c1-0.8-0.3-2.3-1.2-3.6C131.4,281.1,131.1,280.4,131,280.1z"/>
	<path class="st5" d="M142.7,293.8c-2.7-3-4.7-4.2-4.7-4.2c-1.6-1.2-0.8-1-1-2.2c-0.3-1.1-1.7-0.5-1.7-0.5c-1.1,0.5-1.2,1.2-1.2,1.2
		c-0.7,1.5,1.1,1.6,1.6,1.8c1,0.4,1.8,0.2,2,1.7c0.2,2,1.6,1.4,2.7,4.1c1,1.7,2.2,0.3,2.7-0.5C143.7,294.5,142.7,293.8,142.7,293.8z
		"/>
	<path class="st5" d="M199.4,292.6c0.3,0.4,0,1.2,0,3c0.1,1.5,3,1.1,4.6,1.4c1.1,0.1,0.9-0.4,1.1-1.4c0.1-0.5,0.5-1.4,0.8-1.9
		c0.5-0.8-0.2-1.1-1-1.5c-0.6-0.3-1.3-0.9-1.7-1.2c-0.6-0.4-1.3-0.3-2.1-0.1c-0.7,0.2-1.3,0.6-1.7,0.8
		C198.7,292.2,199.4,292.6,199.4,292.6z"/>
	<path class="st5" d="M265.6,334.7c-1.9-0.8-3-3.5-5-2.9c-0.7,0.3-1,0.9-1,0.9l-4,0V331c0,0,0.1-1.5-2.7-1.5
		c-2.8,0-8.7,1.1-10.4-0.6c-0.2-0.6-0.4-1.5-0.2-1.8c0.3-0.5,1-0.4,1.4-0.4c0,0,5.3,0.3,7.5-0.9c2.2-1.2,2.9-2-0.9-2.3
		c-3.8-0.2-17.6,0.6-23.1-3.2c0,0-1.5-1-2.7,0c-1.2,1-1.9,2.8-1.9,2.8s-9.9-0.3-14.2-1.7c0,0-1.2-3.6-8.4-3.6c0,0-3.1-3.7-6.1-1.1
		c0,0-6.5-1.5-7.4-0.6c-0.3,0.3-0.6,0.5-1,1c-0.3,0.4-0.6,1.1-1,1.6c-0.7,0.9-1.7,1.3-1.7,2.5h-2.1c0,0-1.6,1.2,0,2.5h2.1
		c0,0,5.3-0.2,6.3,0.8v2.3c0,0,0.3,0.9,1.8,0.9c1.4,0,5.4,0.2,6.2,0.5c0.8,0.3,2.3,1.6,5.7,1.8c3.4,0.1,13.6,0.1,13.6,0.1
		s3.7,4.2,12.4,4c0,0,1.5,2.5,4.3,0.7c0,0,1.1,0.1,2.8,0.7c1.7,0.6,3.8,1,4.4,0.7c1.8-0.3,2.8-1.6,3.9-1.2c1.1,0.5,6.8,2.6,7.9,3
		c1,0.4,3.2,2.1,4.7-1.4c0.6-0.7,1.5,0,1.5,0s1.4,1.2,1.5,1.7c0.1,0.4,0.4,0.7,0.8,0.6c0.4-0.1,1.3-1.8,1.7-2
		c0.4-0.1,1.5-0.3,1.8-0.5C264.6,336.1,266.6,335.4,265.6,334.7z"/>
	<path class="st5" d="M210.5,276.2c-0.2,1.4,0.2,1.3,0.2,1.3l2.8,1.8c0,0,0,2.2,0,3.6c0,1.3,0.3,0.8,0.3,0.8s1.6-1.5,3.8-0.9
		c2.1,0.6-0.2,3.1-0.2,3.1c-0.4,0.5,0,1.6,0.6,3.3c0.7,1.9,1.5,4.3,1.5,4.3s-0.3,1.6,3.3,2.7c3.6,1.1,5.4-0.3,5.4-0.3
		s2.2-0.6,3.2-0.1c1,0.5,1.2,3.8,1.2,3.8l6.4-0.2c0,0,3.4-1.3,4.7-2c1.2-0.7,1.6,0,1.6,0c3.6,3.8,5.2,0.8,8.3,1.7
		c3.1,0.9,2.3,5.8,2.3,5.8l9.8-3.9c1.6,2.2,4,3,4,3l0.7-10.9c4.1-0.8,1.1-5.8,0.6-6.9c-0.6-1.1,0.2-1.2,0.2-1.2s7.7-4.1,9.1-5.9
		c1.5-1.8-0.2-2-0.6-3.7c-0.5-1.7,2.3-6.1,2.8-7c0.4-0.8,3.3-0.1,5.6,0.2c2.2,0.2,4.7-1.8,4.7-1.8c1-0.4-0.7-1-2.7-2.1
		c-2-1.1-4.3-2.8-4.3-2.8s-2.1-1.5-2-2.6c0.1-1.1,1.7-1.9,1.9-2.3c0.2-0.3-3.5-4.4-4.5-5.6c-1-1.1-0.3-1.2,0.9-3.2
		c1.2-2,0-5.1,0-5.1c-0.2-0.6-2.3-0.2-4.9-0.4c-2.4-0.2-5.1-0.7-7.2-0.8c-1.8-0.1-3.2,0-3.2,0c-3.6,0-3.4,7.3-3.4,7.3
		c-5.8,3.7-5.1,6.9-5.1,6.9c-2,1.8-2.9,6.3-2.9,6.3c-1.7,0-5.1,0.8-7.2,1.7c-2.2,0.9-2.9,0.1-2.9,0.1l-3-1.8l-4.9-0.1l-3.3,4
		l-7.2,0.1c0,0-2,0.1-2.9,0.6c-0.9,0.5-1.2,0.1-1.2,0.1l-5.7-6v-2.7c-0.2-0.9-2,0.1-3.1,0.3c-0.5,0.2-0.5,0.5-0.5,0.5
		s-4,6.2-4.7,7.9c-0.7,1.7,0.9,4.8,1.5,5.4C210.9,273.2,210.7,274.8,210.5,276.2z"/>
	<path class="st5" d="M293.7,337.2c0.2-1.4-0.6-1.4-1.4-1.9c-0.8-0.5-1-1.6-1-1.6l-5.7-0.3c0,0-0.7-1.6-2.9-1.5
		c-2.9,0-3.8,2.4-3.8,2.4c-2.2-0.1-3.5,1-4,1.3c-0.5,0.3-0.9,0.2-0.9,0.2c-0.7-3.6-4.4-2.7-4.4-2.7c-0.2,0-1.5,0.4-1.8,0.7
		c-0.1,0.1-0.1,0.7-0.5,1.3c-0.6,1.1-1.7,2.4-1.7,2.4s-1.2,1.4,0.5,1.8c3.9-0.1,5.9,0.4,5.9,0.4c1,0.1,1.8,0.5,2.6,0.6
		c1.4,0.2,2.5,0.2,3.3,0.1c1.2-0.1,1.9-1,1.9-1s2.9,0.1,3.8,0c1-0.1,2.3-0.9,2.3-0.9l6.1-0.1C291.8,338.3,293.4,338.6,293.7,337.2z"
		/>
	<path class="st5" d="M302.9,343.4c-0.5-0.3-1.8-0.3-2.8-1.2c-1-0.9-8.3-0.7-9.1-0.7c-0.8,0-1.6,0.7-1.6,1.9c0,1.2,1.6,1.5,1.6,1.5
		c3.8,0.1,5.4,0.7,7.9,2.9c2.5,2.2,3.1,1.4,5.3,1.1c2.2-0.3,0.8-1.9,0.8-2.8C305,345.2,303.5,343.7,302.9,343.4z"/>
	<path class="st5" d="M324.8,336.6c1.7,1.3,3.1,0.5,3.6,0.1c0.5-0.5,0.5-1.5,1.4-0.4c0.8,1.1,1.7,1.2,3.1,0.3
		c1.4-0.9,4.7-0.5,6.3-0.7c1.6-0.1,1.6-1.4,1.4-2c-0.2-0.6-4.6-0.7-5.7-0.8c-1.1-0.1-1,0.7-1,0.7c-0.2,0-1.9-0.3-3.8-0.4
		c-3-0.1-6.6,0.1-6.6,0.1c-0.5-1.5-3-2.3-3.1-0.6c-0.2,1.7-2.2,2.7-2.2,2.7l-9.3-0.4c0,0-2.2-1.4-4.1-2.1c-1.8-0.7-4.9,0.3-4.9,0.3
		c-0.9,0.1-3.7,1.6-3.8,3c-0.1,1.4,1.2,1.9,1.2,1.9c1.1,0.4,3.2,0.3,5.5,0.5c1.8,0.1,3.8,0.5,5.6,0.5c4,0,7.5-0.8,10.2-1
		c2.7-0.2,4.7-1.5,4.7-1.5S323.9,336,324.8,336.6z"/>
	<path class="st5" d="M351,336.2c-2.4,0.2-5.2-0.1-7.3,0.2c-4.7,0.8-4.8,3.2-4.8,3.2c-1.4,0.1-3.3,2-3.3,2c-5.3,0-7.7,2.4-9.4,7.6
		c-2.5,2.3-4.9,3.7-4.9,3.7c-0.4,0.3-1,0.3-0.4,0.9c1.6,1,3.5,0.7,3.5,0.7c1.3-0.4,2.4-3.3,2.8-4.3c0.4-0.9,1.1-0.4,1.1-0.4
		s2.5,0.4,5.1,0.1c2.6-0.3,9-7.4,9-7.4c4,0.8,6.1-2,6.1-2s4-0.9,7.1-2c3.1-1.1,1.5-2.8,1.5-2.8C356.4,335.2,353.9,336,351,336.2z"/>
	<path class="st5" d="M344.9,331.1c-0.1,0.4-0.4,0.6-0.2,1.1c0.6,1.2,1,0.3,1,0.3s2.8-0.3,3.6,0.1c0.8,0.4,1,0.6,1.3,0.1
		c0.3-0.5,1.6-0.8,2.5-0.9c0.8-0.1,1-0.7,0.4-1.7c-0.6-1-2.4-0.6-2.4-0.6s-1.1-0.1-1.6,0c-0.5,0.1-3.1,0.3-3.1,0.3
		C345.5,329.7,345.1,330.3,344.9,331.1z"/>
	<path class="st5" d="M341.6,286.6c-0.4-0.5-2-0.2-2.5-0.2c-0.5,0-2.2-0.1-3.3-0.3c-1.1-0.2-2.3,2-1,3.3c1.2,1.2,1.7,0,1.7,0l9.5,0
		c1.3,0,0.2,3.5,2.1,3.7c0.5,0.3,1-0.4,1.4-0.8c0.4-0.4,0-1-0.4-1.5s-0.5-1.3-0.5-1.3s0.4,0,1.4,0c1,0,1-0.7,1-1.4
		c0-0.7-0.8-0.8-0.8-0.8h-7.5C342.6,287.4,342,287.2,341.6,286.6z"/>
	<path class="st5" d="M356.2,296.9c-1.5-1-7.2-0.1-8.8,0.4c-1.6,0.5-0.5,1.3-0.5,1.3s2.3,2.7,3.9,4.2c1.6,1.5,3,0.8,4.8,0.4
		c1.8-0.4,2.6-0.9,2.9-2.3C358.9,299.4,357.8,297.9,356.2,296.9z"/>
	<path class="st5" d="M362.9,287.9c0.6,0.5,1.8,0,2.3-0.5c0.5-0.5,1.1-1.5-0.3-1.7c-1.4-0.2-3.2-2.2-4.3-1.7c-1.1,0.5-1.8,0.9-1.7,2
		c0.2,1.1,0,2.6,2.8,1.9C361.8,287.9,362.4,287.4,362.9,287.9z"/>
	<path class="st5" d="M360.7,281.7c2.8,1.9,2-2.7,4.3-0.7c2.3,2,2.7,0.7,2.2-1c-0.5-0.8-2.6-1.2-3-4.3c-0.4-3.1-1-4.1,0.8-3.8
		c1.8,0.3,1.8,0.9,3.2,1.6c1.4,0.7,3,0.7,3.2,0c0.1-0.7,0.4-1.1-1.7-2.3c-2-1.3-2.9-1.4-2.9-1.4s-0.5-0.7,0.7-1.2
		c1.2-0.5,1.3-1,2-1.9c0.7-1,1.8-1.8,1.2-2.8c-0.6-1-1-1.1-2-0.8c-1,0.3-2.3,0.7-2.8,1.4c-0.5,0.2-0.9-0.3-1-0.9
		c-0.1-0.5-0.9-1.3-0.4-2.2c0.5-0.9,0.7-1.2,0.7-1.2s0.2-0.2,0.6,0c0.4,0.2,0.4,1.2,1.8,0c1.4-1.2,4.1-2.6,2.9-3.6
		c-1.2-1-2.4-0.8-3.2-0.3c-0.8,0.5-3.8,2.2-4.2,2.5c-0.4,0.3-3.2,3.5-3.1,4.5c0.1,1,0,5.9,0.5,7.4c0.5,1.4,0.6,2.2,0.6,2.2l0,3.7
		c0,0-1.4,0.5-2,0.5c-0.6,0-0.7,0-0.8,0.7C358.2,278.3,357.9,279.9,360.7,281.7z"/>
	<path class="st5" d="M383.3,297c-0.5-0.7-2-0.8-3.3-1c-1.2-0.2-2.2-0.5-2.2-0.5h-13.3c-0.2,0.1-0.2,0.3-0.5,0.5
		c-0.5,0.4-1.5,1-1.8,1.5c-0.6,0.8-0.1,1.7,0.7,3c0.6,0.9,0.8,0.8,1.4,0c0.2-0.3,0.8-0.6,1-0.9c1-1.4,0.2,1,2,1c1.8,0,2-0.7,2.4-1.3
		c0.5-0.6,1.6,0.3,2.7,1c0.3,0.2,0.8,0,1.2,0c1,0.1,2,0.1,2.5-0.4c0.8-0.7,1.6,0,1.6,0s5.3,3.6,7.1,3.8c1.8,0.2,1.6-1.9,1.8-2.6
		C386.8,300.3,383.3,297,383.3,297z"/>
	<path class="st5" d="M411.5,326.8c1,0.1,2-0.3,3-1.4c1-1.1,1.5-1.2,2.2-1.5c0.7-0.2,0.9-1.3,0.5-1.8c-0.4-0.5,0.4-1.7,0.2-3.1
		c-0.2-1.4,0.6-3.7-1.4-4.4c-1-0.3-1.6,0.4-2.5,1.4c-0.9,1-2,2.2-1.3,2.3c0,0,0.5,0.3,0,0.8c-0.5,0.5-1.2,0.7-1.2,1.5
		c-0.1,0.8-0.2,3.1-0.2,3.1s-0.8,0.3-0.6,0.8C410.5,325.1,410.4,326.7,411.5,326.8z"/>
	<path class="st5" d="M466.8,318.6c0.1-11.3,0.1-22.5,0.1-23c0-1.2-0.6-1.1-0.6-1.1c-1.9-1.1-9.6-1.5-9.6-1.5
		c-0.5-0.8-3.7-2.3-6.6-2.5c-0.7-0.3-2-1-2.6-1.3c-2.6-1.5-4-2.7-4-2.7c-2.1-1.5-3.4,0.2-4.4,0.7c-0.8,0.4-1.5-0.2-2.2,0.6
		c-0.8,0.8-0.6,2.8-2.6,2.8c-6.2,0.3-10.6,8.8-10.6,8.8h-5.6l-1.4-2.4c0,0,0.1-2.8,0-3.6c-0.1-0.8-0.2-1-0.9-1.3
		c-0.7-0.3-1.9,1.5-1.9,1.5h-1.2l-0.4-3c1-0.6,1.1-2.4,0.3-3.1c-0.8-0.7,0-1.3,0-1.3c1.2-1.3-0.2-2.5-0.2-2.5
		c1.1-3.5-2.3-3.4-4.2-3.5c-0.6,0-1.4-0.3-1.4-0.3s-4.8-2.3-8.1-1.9c-3.3,0.4-4.4,1.9-6.5,2.3c-2.1,0.4-3.3,1.2-3.3,1.2s-2,0-3.3,0
		c-1.3,0-1.2,0.3-1.2,0.3c-0.5,3,2.7,4.4,2.7,4.4c1.8,1.1,1.3,0.2,4.3,0.3c3.4,0.2,2.1,2.4,5,5c2.3,2.2,6.8,0.6,8.7,0
		c1.9-0.6,1.7-0.1,2.2,0.7c0.5,0.8,1.5,1.9-0.3,1.3c-1.8-0.6-5.3,0.8-6.2,1.1c-0.9,0.3-1.5,0.2-1.5,0.2s-1.8-0.8-3.1-0.6
		c-1.4,0.2-2.3,0.9-1.4,2.4c0.9,1.5,2.2,0.8,2.2,0.8s2.8,2,3.7,2.6c0.8,0.7,0.1,1.2,0.1,1.2c-1.9,2.6-0.2,4.2,2.6,5.3
		c2.8,1.1,4.4-3.3,4.4-3.3c0.3-0.9,0.6-0.2,0.6-0.2c2.9,2.6,7.3,2.1,7.3,2.1l4.9,4.4c7.5-0.1,9.7,1,12.2,1.9
		c2.2,0.8,3.8,1.6,3.8,1.6c6.3,3.2,6.7,5.1,7.8,7.4c1,2,1.8,3.8,2.3,4.8c1.1,2.1,1.2,3.1-0.7,4.4c-1.9,1.3-3.3,2.8-4.1,4.5
		c-0.8,1.7-1.2,1.1-2.4,2.1c-0.7,0.9-0.7,1.4-0.1,1.7c0.5,0.3,1.4,0.5,2.7,0.7c0.7,0.2,1.3,0.3,1.8,0.3c1.3,0.2,1.7,0,2.1-0.3
		c0.6-0.3,1.3-0.3,2.2-0.2c0.9,0.1,1.9-0.8,2.4-1.9c0.5-1.1,1.1-0.4,1.1-0.4c2,1.5,5-0.7,5-0.7c0.5,1,3.9,2.8,5.9,5.4
		c2,2.6,4,2.5,4,2.5s0.1-10.4,0.1-21.5C466.8,320.7,466.8,319.7,466.8,318.6z"/>
	<path class="st5" d="M168.4,225c0.1,2.2,0.4,4.3,1.1,6.2c2.9,9.2,11.5,15.9,21.6,15.9c12.3,0,22.3-9.8,22.7-21.9c0-0.3,0-0.5,0-0.8
		c0-1.4-0.1-2.8-0.4-4.1c-0.5-2.5-1.3-4.9-2.5-7c-3.9-6.9-11.3-11.6-19.8-11.6c-12,0-21.8,9.3-22.7,21.2c0,0.5-0.1,1-0.1,1.6
		C168.4,224.6,168.4,224.8,168.4,225z M191.1,246.5c-6.7,0-12.8-3-16.8-7.8h33.3h0.3C203.8,243.5,197.8,246.5,191.1,246.5z
		 M169.1,222.7c0.9-11.4,10.4-20.3,22-20.3c8.2,0,15.3,4.5,19.1,11.1c1.2,2.1,2.1,4.5,2.6,7c0.2,1.3,0.4,2.6,0.4,4
		c0,0.2,0,0.3,0,0.5h-9.1c0,2.3-6,3.8-9.9,4.3c-1.8,0.2-3.1,0-3.1,0c2.7,0.8,5.8,0.1,6.4,0c0.7-0.2,1-0.2,1,0.2
		c0,0.3-0.5,0.5-0.5,0.5c-8.7,1.1-6.4-0.7-10.6-0.7c-4.2,0-5.8,3.9-5.8,2.3c0-1.9-0.4-2.9-2-2.9c-1.5,0-1.4,1.2-3.3,1.2
		c-0.6,0-1-0.1-1.3-0.3c-0.6-0.4-0.4-1,0.1-1c0.7,0,0.5,0.5,1.1,0.6c0.1,0,0.1,0,0.2,0c0.3,0,0.6-0.2,1-0.4c0.7-0.4,1.4-1,2.2-1
		c0.3,0,0.6,0.1,0.8,0.1c0.7,0.3,1.2,0.7,1.2,0.7c-0.1-0.2-0.1-0.6-0.2-1c-0.2-1.1-0.3-2.6-0.3-2.6H169c0-0.2,0-0.3,0-0.5
		C169,223.9,169,223.3,169.1,222.7z"/>
	<path class="st5" d="M181.2,222.3c-0.1-1-0.3-2-0.4-2.8c-0.6-2.9-1.3-4.5-1.3-4.5c-2,0.4-1,2.9,0.1,4.8
		C180.4,221.2,181.2,222.3,181.2,222.3z"/>
	<path class="st5" d="M182.4,227.3c0,1,0.1,2.1,0.1,3.2c3.1-3.6,7.5-1.2,12.3-2.2c5.2-0.8,7.1-2,7.8-2.2c1.2-0.4,0.9-2.6,0.9-2.6
		c-0.9,0-2-0.2-3.1-0.6c-3.4-1.1-7.5-3.4-11.1-5.4c-1.4-0.8-2.7-1.5-3.9-2c-1.9-0.8-4.9-0.8-4.9-0.8s0.6,1.3,1.2,4.6
		C182,221.2,182.3,223.8,182.4,227.3z"/>
	<path class="st5" d="M183.1,214.1h4v1.6l3,1.6l5,2.7v-3.7l0.5-0.2l0.5-0.2l0.1,0.1l4.2,3.1l-0.3-3.7l-0.2-0.2l-2-1.8h-15.5v0.9h0.6
		V214.1z M193,214.1h4.3v1.4l-0.4,0.1H193V214.1z M187.8,214.1h4.7v1.5h-4.7V214.1z"/>
	<path class="st5" d="M196.1,216.5v3.7c1.3,1.1,5.3,2.2,5.8,2.3c0,0,0.1,0,0.1,0c0,0,0,0,0,0c0-1.2-0.9-1.2-0.9-1.2v-1.6
		C198.4,218.6,196.1,216.5,196.1,216.5z M197.1,219.8c-0.4,0-0.7-0.4-0.7-1c0-0.5,0.3-0.9,0.7-0.9s0.7,0.4,0.7,0.9
		C197.8,219.3,197.5,219.8,197.1,219.8z M198.7,220.5c-0.3,0-0.6-0.3-0.6-0.8c0-0.4,0.3-0.8,0.6-0.8c0.3,0,0.6,0.3,0.6,0.8
		C199.3,220.2,199,220.5,198.7,220.5z M200.2,221.3c-0.3,0-0.5-0.3-0.5-0.7c0-0.4,0.2-0.7,0.5-0.7c0.3,0,0.5,0.3,0.5,0.7
		C200.7,221,200.5,221.3,200.2,221.3z"/>
	<path class="st5" d="M191.5,209.8c-1.5,0-1.6,0.7-1.6,0.7l-0.8,2.4h5.1C194.2,211.3,193.5,209.8,191.5,209.8z"/>
	<path class="st5" d="M199.7,214.6c0-0.8-1.1-2.4-2.7-2.4c-1.2,0-1.2,0.8-1.2,0.8l2.2,0L199.7,214.6z"/>
	<path class="st5" d="M273.3,229.1h4.6v-19.4h6.2v2.2c-0.4,0.4-0.7,0.7-1,0.9c-0.6,0.5-1.1,1-1.1,1.6c0,1.7,1,2.8,2.5,2.8
		c1.5,0,2.5-1.1,2.5-2.8h-0.9c0,0.9-0.4,1.9-1.5,1.9c-1,0-1.6-0.7-1.6-1.9c0-0.2,0.2-0.5,0.8-0.9c0.3-0.3,0.7-0.6,1.1-1.1
		c0.1-0.1,0.1-0.3,0.1-0.3v-2.4h6.2v-4.6h-20v4.6h2.1V229.1z M274.3,219l1.4-4l1.4,4H274.3z M277,219.3l-1.4,4l-1.4-4H277z
		 M274.3,209.8h2.8l-1.4,4L274.3,209.8z M275.3,214.4l-1.4,4v-8L275.3,214.4z M275.3,223.9l-1.4,4v-8L275.3,223.9z M274.3,228.5
		l1.4-4l1.4,4H274.3z M277.3,227.9l-1.4-4l1.4-4V227.9z M277.3,218.4l-1.4-4l1.4-4V218.4z M282,209.1l4-1.4l4,1.4H282z M290.6,208.8
		l-4-1.4l4-1.4V208.8z M290,205.7l-4,1.4l-4-1.4H290z M281.4,206.1l4,1.4l-4,1.4V206.1z M281.1,208.8l-4-1.4l4-1.4V208.8z
		 M280.5,205.7l-4,1.4l-4-1.4H280.5z M271.9,206.1l4,1.4l-4,1.4V206.1z M272.5,209.1l4-1.4l4,1.4H278h-4.6H272.5z"/>
	<path class="st5" d="M290.9,210.6v2.5h-1.4v1.3h1.4v2.4h-1.4v1.3h1.4v2.5h1.3v-2.5h5.2v2.5h1.3v-2.5h1.8v-1.3h-1.8v-2.4h1.8v-1.3
		h-1.8v-2.5h-1.3v2.5h-5.2v-2.5H290.9z M297.5,214.4v2.4h-5.2v-2.4H297.5z"/>
	<path class="st5" d="M262,217c0,0.2,0,0.4,0,0.6c0,0.4,0,0.7,0.1,1.1c0,0,0,0,0,0c0.4,5.3,2.6,10.1,6.1,13.8
		c0.1,0.1,0.2,0.2,0.3,0.4c4.1,4.2,9.9,6.9,16.2,6.9c6.4,0,12.1-2.6,16.2-6.9c0.1-0.1,0.2-0.2,0.3-0.4c1-1,1.9-2.2,2.6-3.4
		c1.9-3.1,3.1-6.6,3.4-10.4c0-0.3,0.1-0.6,0.1-0.9c0-0.3,0-0.5,0-0.8c0-1-0.1-1.9-0.2-2.9c-0.3-2.1-0.8-4.1-1.6-6
		c-3.5-8.1-11.5-13.9-20.9-13.9c-9.3,0-17.4,5.7-20.9,13.7c-0.9,2.1-1.5,4.3-1.7,6.6C262,215.4,262,216.2,262,217z M300.1,232.8
		c-4,3.9-9.4,6.3-15.4,6.3c-6,0-11.4-2.4-15.4-6.3c-0.1-0.1-0.2-0.2-0.3-0.4h31.4C300.3,232.6,300.2,232.7,300.1,232.8z
		 M262.7,214.6c0.2-2.3,0.9-4.6,1.8-6.6c3.4-7.7,11.2-13.1,20.2-13.1c9,0,16.8,5.4,20.2,13.2c0.8,1.9,1.4,3.9,1.7,6
		c0.1,1,0.2,1.9,0.2,2.9c0,0.2,0,0.3,0,0.5c0,0.4,0,0.8-0.1,1.2h-7.3v2.5h-2.5v-2.5h-4v2.5h-2.6v-2.5h-11.7v11.1h-5.9v-11.1h-10
		c0-0.4-0.1-0.8-0.1-1.2c0-0.2,0-0.3,0-0.5C262.6,216.2,262.7,215.4,262.7,214.6z"/>
	<path class="st5" d="M387.9,242.5c-1,0-2,0.1-2.9,0.1C386.6,242.6,387.8,242.5,387.9,242.5z"/>
	<path class="st5" d="M365.4,229.8l0.5,0.3c1.1-2.1,4.3-7.1,4.4-7.2l-0.5-0.3C369.8,222.6,366.6,227.7,365.4,229.8z"/>
	<path class="st5" d="M370,222.2c0.1-0.2,0.2-0.4,0.3-0.7c0.1-0.2,0.2-0.5,0.4-0.7c0.1-0.2,0.3-0.5,0.5-0.7c0.2-0.2,0.3-0.5,0.5-0.7
		c0.2-0.2,0.3-0.5,0.5-0.7c0.2-0.2,0.4-0.5,0.5-0.7c0.3-0.5,0.7-0.9,0.9-1.2c0.4-0.5,0.7-0.9,0.9-1c-0.2,0.1-0.7,0.3-1.4,0.6
		c-0.9,0.4-2.1,1-3.3,1.5c-0.6,0.3-1.2,0.6-1.7,0.8c-0.6,0.2-1.1,0.4-1.6,0.6c-0.3,0.1-0.5,0.2-0.7,0.2l4,3.1
		C369.9,222.5,369.9,222.4,370,222.2z"/>
	<path class="st5" d="M373.8,216.9c-0.2,0.4-0.5,0.8-0.8,1.3c-0.1,0.2-0.3,0.5-0.5,0.7c-0.2,0.2-0.3,0.5-0.5,0.8
		c-0.3,0.5-0.6,1-0.9,1.5c-0.1,0.2-0.3,0.5-0.4,0.7c-0.1,0.2-0.3,0.4-0.4,0.6c-0.1,0.1-0.1,0.2-0.2,0.3l5.9,0.8
		c-0.1-0.1-0.1-0.3-0.2-0.4c-0.1-0.2-0.2-0.4-0.2-0.7c-0.1-0.2-0.1-0.5-0.2-0.7c-0.1-0.5-0.2-1.1-0.3-1.6c-0.2-1.1-0.4-2.2-0.5-3.1
		c-0.1-0.7-0.1-1.1-0.2-1.3c0,0.1-0.1,0.2-0.2,0.3C374.3,216.2,374.1,216.5,373.8,216.9z"/>
	<path class="st5" d="M375.7,220c0.1,0.3,0.1,0.5,0.2,0.8c0.1,0.3,0.2,0.5,0.2,0.8c0.1,0.3,0.1,0.5,0.2,0.7c0.1,0.2,0.1,0.5,0.1,0.7
		c0,0.1,0,0.2,0,0.3c0,0.1,0,0.2,0.1,0.3l3.6-0.7l-5.5-7.2c0,0.2,0.2,0.6,0.3,1.3C375.2,217.8,375.4,218.9,375.7,220z"/>
	<path class="st5" d="M366.4,218.8c0.4-0.2,1-0.5,1.5-0.7c0.6-0.2,1.2-0.4,1.8-0.7c1.2-0.5,2.4-0.9,3.4-1.3c0.7-0.3,1.3-0.5,1.5-0.5
		l-10.4,0.1l1.5,3.5C365.8,219.1,366.1,219,366.4,218.8z"/>
	<path class="st5" d="M350.4,226.1c0,0.2,0,0.4,0,0.6c0,0.6,0.1,1.2,0.1,1.8c0.6,5.5,3.2,10.5,7,14.1c4.1,3.8,9.5,6.2,15.6,6.2
		c5.9,0,11.3-2.3,15.3-6c3.7-3.4,6.3-8,7.1-13.1c0.2-0.9,0.2-1.8,0.3-2.8c0-0.1,0-0.2,0-0.3c0-0.2,0-0.4,0-0.5
		c0-1.4-0.1-2.8-0.4-4.1c-1.9-10.6-11.2-18.6-22.3-18.6c-7.7,0-14.5,3.8-18.6,9.7c-1.1,1.5-1.9,3.1-2.6,4.8
		C350.9,220.4,350.4,223.2,350.4,226.1z M373.1,248.2c-5.7,0-10.9-2.2-14.8-5.7c0.1,0,5.8,1.8,10.3-0.2c3.6-2.3-9.8-2.5-0.9-3.7
		c0,0,2.9-0.4,4.7,0.7c2.2,1.4-2,3.7,12.7,3.3c-3.5,0-9.2-0.3-10.4-2.6c-1.4-2.6,14.5-4.1,7.7-5.6c-7.4-0.7-6.7,0.5-4.8,1.1
		c0.8,0.2,1.2,1.2-0.4,1.7c0,0-1.7,0.4-4,0.5c-5.6,0.3-15,0.6-11.2,1.8c0,0,10.8,3.5-3.6,3h0c6.8-0.9-0.2-3.3-0.2-3.3
		c-1.6-0.7,0.4-2.2,3.4-2.7c4.1-0.6,10.1,0,11.3,0.1c2,0.1,3.8-0.1,0.8-1.3c-3-1.2,3.7-3.6,11-1.7c6.8,3.1-7.9,3.8-5.9,6.7
		c1.9,2.4,9.1,2.2,9.2,2.2C384,246,378.8,248.2,373.1,248.2z M371.1,234.1l-3.3,0.4l-0.3,1.3l-1.5-1.6h-3.7l2.1-0.7l-2.4-1.3
		l3.6,0.8l3.1-1.4l-0.7,1.9L371.1,234.1z M355.2,213.2c4-5.6,10.5-9.2,17.9-9.2c10.7,0,19.7,7.7,21.7,17.8c0.3,1.4,0.4,2.8,0.4,4.3
		c0,0.1,0,0.3,0,0.4c0,0,0,0.1,0,0.1c0,0.6-0.1,1.2-0.1,1.8c-2.8-0.7-9.4-1-15.4-0.9c-6.2,0.1-12,0.5-12,0.5l-1.5,2.7l-1.1-0.7
		l1.2-2.2c-3.4-0.4-13.2,0.4-15,0.6c-0.1-0.6-0.1-1.1-0.1-1.7c0-0.2,0-0.3,0-0.5c0-2.9,0.5-5.6,1.6-8.1
		C353.2,216.3,354.1,214.6,355.2,213.2z"/>
	<path class="st5" d="M428,237.5c-3.5,4-5.5,9.2-5.5,14.8c0,0.2,0,0.4,0,0.6c0,0.5,0,0.9,0.1,1.4c0,0.1,0,0.3,0,0.4
		c0.5,5.2,2.8,9.8,6.3,13.4c0.2,0.2,0.5,0.5,0.7,0.7c4.1,3.8,9.5,6.2,15.6,6.2c5.9,0,11.3-2.3,15.3-6c0.3-0.3,0.6-0.6,1-0.9
		c2-2,3.5-4.4,4.6-7c0.3-0.8,0.6-1.6,0.9-2.5c0.3-0.9,0.5-1.8,0.6-2.7c0.1-0.5,0.2-1.1,0.2-1.6c0-0.4,0.1-0.8,0.1-1.2
		c0-0.3,0-0.5,0-0.8c0-12.5-10.2-22.7-22.7-22.7c-5.5,0-10.5,1.9-14.4,5.2C429.7,235.6,428.8,236.5,428,237.5z M459.9,268.7
		c-3.9,3.5-9.1,5.7-14.8,5.7c-5.7,0-10.9-2.2-14.8-5.7c0,0,0,0,0,0h0c-0.2-0.2-0.4-0.4-0.6-0.6h3.4l4.5,2.6l1.5-2.6h2.7
		c0.2,0,0.5,0.1,0.7,0.1v3.8h5.3v-3.8c0.2,0,0.5-0.1,0.7-0.1h2.7l1.5,2.6l4.5-2.6h3.4C460.3,268.4,460.1,268.5,459.9,268.7z
		 M455.1,246.1c-0.1,0-0.2,0-0.2,0.1c-0.5,0.4-0.9,0.9-1.3,1.3c-0.2,0.2-0.4,0.4-0.6,0.6c-0.1,0.1-0.1,0.1-0.1,0.2
		c-0.7-0.7-1.4-1.4-2-2c0,0,0.1-0.1,0.1-0.1c0.1-0.1,0.1-0.1,0.2-0.2c0.6-0.6,1.2-1.2,1.7-1.7c0.1-0.1,0.1-0.2,0.1-0.2
		c0,0-0.1-0.1-0.2-0.1c-0.8,0-1.6,0-2.4,0c-0.1,0-0.2,0.1-0.3,0.1c-0.3,0.3-0.5,0.5-0.8,0.8c-0.4,0.4-0.8,0.8-1.2,1.2
		c-0.1,0.1-0.1,0.2-0.1,0.3c0,0.5,0,0.9,0,1.3c0,0.3,0,0.6,0,0.8c0,0.1,0,0.2-0.1,0.3c-0.6,0.6-1.1,1.1-1.7,1.7c0,0-0.1,0.1-0.1,0.1
		l-0.5,0.5c-1-1-2-2-2.9-2.9c0,0,0,0-0.1-0.1c0.4-0.5,0.9-0.9,1.6-0.9c0.5-0.1,1,0,1.5,0.3c0.1,0.1,0.2,0,0.3,0
		c0.2-0.2,0.4-0.4,0.6-0.6c0.2-0.2,0.4-0.3,0.5-0.5c0.2-0.2,0.2-0.2,0-0.4c-1-0.9-2.1-1.6-3.5-1.8c-0.7-0.1-1.4-0.1-2-0.1
		c-1.4,0.2-2.7,0.8-3.9,1.9c-0.1,0.1-0.1,0.2-0.1,0.3c0.2,0.5,0,1-0.3,1.4c-0.4,0.4-0.9,0.5-1.4,0.3c-0.1,0-0.2,0-0.3,0.1
		c-0.5,0.5-1,1-1.5,1.5c-0.1,0.1-0.1,0.2,0,0.3c1.1,1.1,2.1,2.1,3.2,3.2c0.1,0.1,0.2,0.1,0.3,0c0.5-0.5,1-1,1.6-1.6
		c0.1-0.1,0.1-0.2,0.1-0.3c-0.3-0.9,0.4-1.9,1.4-1.9c0.1,0,0.2,0,0.3,0.1c1.1,1.1,2.1,2.1,3.2,3.2l-0.5,0.5c0,0,0,0-0.1,0.1
		c-0.4,0.4-0.8,0.8-1.1,1.1h-9.6c-0.1-0.7-0.2-1.3-0.2-2c0-0.9,0.1-1.8,0.3-2.7c0.1-0.4,0.2-0.8,0.3-1.2c0.6-1.7,1.5-3.3,2.7-4.6
		c0.3-0.3,0.6-0.6,0.9-0.9c0.4-0.3,0.8-0.7,1.2-1c1-0.7,2.2-1.3,3.4-1.7c0.1,0,0.2-0.1,0.3-0.1c0.3-0.1,0.6-0.2,0.9-0.2
		c0.9-0.2,1.8-0.3,2.7-0.3c0.9,0,1.8,0.1,2.7,0.3c0.4,0.1,0.8,0.2,1.2,0.3c1.7,0.6,3.3,1.5,4.6,2.7c0.3,0.3,0.6,0.6,0.9,0.9
		c1.2,1.3,2.1,2.9,2.7,4.6c0.1,0.4,0.2,0.8,0.3,1.2c0.1,0.3,0.1,0.6,0.1,0.8c0.1,0.6,0.1,1.2,0.1,1.8c0,0.5,0,1.1-0.1,1.6
		c0,0.1,0,0.3,0,0.4h-7.8c-0.4-0.4-0.8-0.8-1.3-1.3l0.5-0.5c0,0,0.1-0.1,0.1-0.1c0.4-0.4,0.9-0.9,1.3-1.3c0.1-0.1,0.1-0.1,0.2-0.1
		c0.7,0,1.5,0,2.2,0c0.1,0,0.2,0,0.3-0.1c0,0,0.1-0.1,0.1-0.1c0.6-0.6,1.2-1.2,1.9-1.9c0-0.1,0.1-0.1,0.1-0.2c0,0,0,0,0,0
		c0-0.8,0-1.6,0-2.4C455.2,246.3,455.1,246.2,455.1,246.1z M431.4,235.1c3.8-3,8.6-4.8,13.8-4.8c12.2,0,22.1,9.9,22.1,22.1
		c0,0.2,0,0.3,0,0.5c0,0.5-0.1,1-0.1,1.5h-2.3v-4.6h-3.8c-0.2-1-0.4-2-0.8-3l3.3-1.9l-2.7-4.6l-3.3,1.9c-0.7-0.8-1.4-1.5-2.2-2.2
		l1.9-3.3l-4.6-2.7l-1.9,3.3c-1-0.4-2-0.6-3-0.8v-3.8h-5.3v3.8c-1,0.2-2,0.4-3,0.8l-1.9-3.3l-3.9,2.2l-0.7,0.4l1.9,3.3
		c-0.2,0.1-0.4,0.3-0.5,0.5c-0.6,0.5-1.2,1.1-1.7,1.7l-3.3-1.9l-2.7,4.6l3.3,1.9c-0.4,1-0.6,2-0.8,3h-3.8v4.6h-2.3
		c0-0.5-0.1-1-0.1-1.5c0-0.2,0-0.3,0-0.5c0-5.6,2.1-10.7,5.5-14.6C429.4,236.8,430.3,235.9,431.4,235.1z"/>
</g>
</svg>
