<?xml version="1.0" encoding="utf-8"?>
<!-- Generator: Adobe Illustrator 22.1.0, SVG Export Plug-In . SVG Version: 6.00 Build 0)  -->
<svg version="1.1" id="Layer_1" xmlns="http://www.w3.org/2000/svg" xmlns:xlink="http://www.w3.org/1999/xlink" x="0px" y="0px"
	 viewBox="0 0 1920 533.1" style="enable-background:new 0 0 1920 533.1;" xml:space="preserve">
<style type="text/css">
	.st0{fill:#231F20;}
	.st1{fill:#EB2227;}
	.st2{fill:#2E3588;}
</style>
<g>
	<g>
		<path class="st0" d="M25.1,504.4h23.1v7.1h-32v-51h8.9V504.4z"/>
		<path class="st0" d="M84.8,488.7H63.9v15.7h24.5v7.1H55.1v-51h33.1v7.2H63.9v14h20.9V488.7z"/>
		<path class="st0" d="M107.1,460.5l14.7,39.1l14.7-39.1h11.4v51h-8.8v-16.8l0.9-22.5l-15,39.3h-6.3l-15-39.2l0.9,22.4v16.8h-8.8
			v-51H107.1z"/>
		<path class="st0" d="M158.3,511.5v-51h17.5c2.8,0,5.2,0.3,7.4,0.8c2.2,0.5,4.1,1.4,5.6,2.5c1.5,1.1,2.7,2.6,3.5,4.3
			c0.8,1.8,1.2,3.8,1.2,6.2c0,2.3-0.6,4.4-1.9,6.3c-1.3,1.9-3.1,3.3-5.5,4.4c1.5,0.4,2.7,1,3.8,1.7c1.1,0.8,2,1.7,2.7,2.7
			c0.7,1,1.2,2.2,1.6,3.4c0.4,1.2,0.5,2.5,0.5,3.8c0,2.5-0.4,4.6-1.2,6.5c-0.8,1.9-2,3.4-3.5,4.7c-1.5,1.2-3.4,2.2-5.6,2.8
			c-2.2,0.7-4.6,1-7.4,1H158.3z M167.2,482h8.7c2.8,0,4.9-0.6,6.5-1.9c1.5-1.2,2.3-3,2.3-5.3c0-2.5-0.7-4.4-2.2-5.5
			c-1.4-1.1-3.7-1.7-6.7-1.7h-8.6V482z M167.2,488.5v15.9h9.8c1.4,0,2.7-0.2,3.8-0.5c1.1-0.4,2-0.9,2.8-1.6c0.7-0.7,1.3-1.5,1.7-2.5
			c0.4-1,0.6-2,0.6-3.2c0-2.5-0.7-4.5-2-5.9c-1.3-1.5-3.5-2.2-6.5-2.2H167.2z"/>
		<path class="st0" d="M232.1,499.6h-19.7l-4.1,11.9H199l19.3-51h7.9l19.3,51h-9.2L232.1,499.6z M214.8,492.5h14.8l-7.4-21.1
			L214.8,492.5z"/>
		<path class="st0" d="M289.6,504.9c-0.5,0.7-1.3,1.5-2.2,2.3c-1,0.8-2.2,1.6-3.7,2.4c-1.5,0.7-3.3,1.3-5.4,1.9
			c-2.1,0.5-4.6,0.8-7.4,0.8c-3.2,0-6.1-0.6-8.8-1.7c-2.7-1.1-5-2.7-6.9-4.8c-1.9-2.1-3.4-4.6-4.5-7.7c-1.1-3-1.6-6.5-1.6-10.4v-3.3
			c0-3.9,0.5-7.3,1.4-10.4c1-3.1,2.3-5.6,4.1-7.7c1.8-2.1,4-3.7,6.6-4.8c2.6-1.1,5.5-1.7,8.8-1.7c3.1,0,5.8,0.4,8.1,1.2
			c2.3,0.8,4.3,1.9,5.8,3.4c1.6,1.4,2.8,3.2,3.7,5.1c0.9,2,1.5,4.2,1.8,6.6h-8.7c-0.2-1.3-0.6-2.5-1.1-3.6c-0.5-1.1-1.2-2.1-2-2.9
			c-0.9-0.8-1.9-1.5-3.1-1.9c-1.2-0.5-2.7-0.7-4.5-0.7c-2.1,0-3.9,0.4-5.4,1.1c-1.5,0.8-2.8,1.9-3.8,3.4c-1,1.5-1.8,3.3-2.3,5.5
			c-0.5,2.2-0.7,4.6-0.7,7.4v3.4c0,2.8,0.3,5.3,0.9,7.5c0.6,2.1,1.5,4,2.6,5.4c1.1,1.5,2.5,2.6,4.1,3.4c1.6,0.8,3.5,1.2,5.5,1.2
			c1.5,0,2.8-0.1,3.9-0.3c1.1-0.2,2-0.4,2.8-0.7c0.7-0.3,1.4-0.7,1.8-1c0.5-0.3,0.9-0.7,1.2-1v-10h-10.5v-6.7h19.3V504.9z"/>
		<path class="st0" d="M327.9,499.6h-19.7l-4.1,11.9h-9.2l19.3-51h7.9l19.3,51H332L327.9,499.6z M310.6,492.5h14.8l-7.4-21.1
			L310.6,492.5z"/>
		<path class="st0" d="M373.8,492.6v18.9h-8.9v-51h19.5c3,0,5.6,0.4,7.9,1.2c2.3,0.8,4.2,1.9,5.8,3.4c1.6,1.4,2.8,3.1,3.6,5.1
			c0.8,2,1.2,4.1,1.2,6.5c0,2.5-0.4,4.7-1.2,6.7c-0.8,2-2,3.6-3.6,5c-1.6,1.4-3.5,2.4-5.8,3.1c-2.3,0.7-4.9,1.1-7.9,1.1H373.8z
			 M373.8,485.4h10.6c1.7,0,3.2-0.2,4.4-0.6c1.2-0.4,2.2-1,3-1.8c0.8-0.8,1.4-1.7,1.7-2.7c0.4-1,0.5-2.2,0.5-3.5
			c0-1.2-0.2-2.3-0.5-3.4c-0.4-1.1-0.9-2.1-1.7-2.9c-0.8-0.8-1.8-1.5-3-2c-1.2-0.5-2.7-0.7-4.4-0.7h-10.6V485.4z"/>
		<path class="st0" d="M440.5,488.7h-20.9v15.7H444v7.1h-33.3v-51h33.1v7.2h-24.2v14h20.9V488.7z"/>
		<path class="st0" d="M491.7,511.5h-8.9l-22.7-36.2v36.2h-8.9v-51h8.9l22.8,36.3v-36.3h8.8V511.5z"/>
		<path class="st0" d="M541.2,504.9c-0.5,0.7-1.3,1.5-2.2,2.3c-0.9,0.8-2.2,1.6-3.7,2.4c-1.5,0.7-3.3,1.3-5.4,1.9
			c-2.1,0.5-4.6,0.8-7.4,0.8c-3.2,0-6.1-0.6-8.8-1.7c-2.7-1.1-5-2.7-6.9-4.8c-1.9-2.1-3.4-4.6-4.5-7.7c-1.1-3-1.6-6.5-1.6-10.4v-3.3
			c0-3.9,0.5-7.3,1.4-10.4c0.9-3.1,2.3-5.6,4.1-7.7c1.8-2.1,4-3.7,6.6-4.8c2.6-1.1,5.5-1.7,8.8-1.7c3.1,0,5.8,0.4,8.1,1.2
			c2.3,0.8,4.3,1.9,5.9,3.4c1.6,1.4,2.8,3.2,3.7,5.1c0.9,2,1.5,4.2,1.8,6.6h-8.7c-0.2-1.3-0.6-2.5-1-3.6c-0.5-1.1-1.2-2.1-2-2.9
			c-0.8-0.8-1.9-1.5-3.1-1.9c-1.2-0.5-2.7-0.7-4.5-0.7c-2.1,0-3.9,0.4-5.4,1.1c-1.5,0.8-2.8,1.9-3.8,3.4c-1,1.5-1.8,3.3-2.3,5.5
			c-0.5,2.2-0.7,4.6-0.7,7.4v3.4c0,2.8,0.3,5.3,0.9,7.5c0.6,2.1,1.5,4,2.6,5.4c1.1,1.5,2.5,2.6,4.1,3.4c1.6,0.8,3.5,1.2,5.5,1.2
			c1.5,0,2.8-0.1,3.9-0.3c1.1-0.2,2-0.4,2.7-0.7c0.7-0.3,1.4-0.7,1.8-1c0.5-0.3,0.9-0.7,1.2-1v-10h-10.5v-6.7h19.3V504.9z"/>
		<path class="st0" d="M580.7,488.7h-20.9v15.7h24.5v7.1h-33.3v-51H584v7.2h-24.2v14h20.9V488.7z"/>
		<path class="st0" d="M602.9,460.5l14.7,39.1l14.7-39.1h11.4v51h-8.8v-16.8l0.9-22.5l-15.1,39.3h-6.3l-15-39.2l0.9,22.4v16.8h-8.8
			v-51H602.9z"/>
		<path class="st0" d="M654.2,511.5v-51h17.5c2.7,0,5.2,0.3,7.4,0.8c2.2,0.5,4.1,1.4,5.6,2.5c1.5,1.1,2.7,2.6,3.5,4.3
			c0.8,1.8,1.2,3.8,1.2,6.2c0,2.3-0.6,4.4-1.9,6.3c-1.3,1.9-3.1,3.3-5.5,4.4c1.5,0.4,2.8,1,3.8,1.7c1.1,0.8,2,1.7,2.7,2.7
			c0.7,1,1.2,2.2,1.6,3.4c0.4,1.2,0.5,2.5,0.5,3.8c0,2.5-0.4,4.6-1.2,6.5c-0.8,1.9-2,3.4-3.5,4.7c-1.5,1.2-3.4,2.2-5.6,2.8
			c-2.2,0.7-4.6,1-7.4,1H654.2z M663.1,482h8.7c2.7,0,4.9-0.6,6.5-1.9c1.5-1.2,2.3-3,2.3-5.3c0-2.5-0.7-4.4-2.2-5.5
			c-1.4-1.1-3.7-1.7-6.7-1.7h-8.6V482z M663.1,488.5v15.9h9.8c1.5,0,2.7-0.2,3.8-0.5c1.1-0.4,2-0.9,2.8-1.6c0.7-0.7,1.3-1.5,1.7-2.5
			c0.4-1,0.6-2,0.6-3.2c0-2.5-0.7-4.5-2-5.9c-1.3-1.5-3.5-2.2-6.5-2.2H663.1z"/>
		<path class="st0" d="M728,499.6h-19.7l-4.1,11.9h-9.2l19.2-51h7.9l19.3,51h-9.2L728,499.6z M710.7,492.5h14.8l-7.4-21.1
			L710.7,492.5z"/>
		<path class="st0" d="M787.6,511.5h-8.8L756,475.4v36.2h-8.8v-51h8.8l22.8,36.3v-36.3h8.8V511.5z"/>
		<path class="st0" d="M837.1,504.9c-0.6,0.7-1.3,1.5-2.2,2.3c-1,0.8-2.2,1.6-3.7,2.4c-1.5,0.7-3.3,1.3-5.4,1.9
			c-2.1,0.5-4.6,0.8-7.4,0.8c-3.2,0-6.1-0.6-8.8-1.7c-2.7-1.1-5-2.7-6.9-4.8c-1.9-2.1-3.4-4.6-4.5-7.7c-1.1-3-1.6-6.5-1.6-10.4v-3.3
			c0-3.9,0.5-7.3,1.4-10.4c1-3.1,2.3-5.6,4.1-7.7c1.8-2.1,4-3.7,6.6-4.8c2.6-1.1,5.5-1.7,8.8-1.7c3.1,0,5.8,0.4,8.1,1.2
			c2.3,0.8,4.3,1.9,5.8,3.4c1.6,1.4,2.9,3.2,3.8,5.1c0.9,2,1.5,4.2,1.8,6.6h-8.7c-0.2-1.3-0.6-2.5-1.1-3.6c-0.5-1.1-1.2-2.1-2-2.9
			c-0.8-0.8-1.9-1.5-3.1-1.9c-1.2-0.5-2.7-0.7-4.5-0.7c-2.1,0-3.9,0.4-5.4,1.1c-1.5,0.8-2.8,1.9-3.8,3.4c-1,1.5-1.8,3.3-2.3,5.5
			c-0.5,2.2-0.8,4.6-0.8,7.4v3.4c0,2.8,0.3,5.3,0.9,7.5c0.6,2.1,1.5,4,2.6,5.4c1.1,1.5,2.5,2.6,4.1,3.4c1.6,0.8,3.4,1.2,5.5,1.2
			c1.5,0,2.8-0.1,3.9-0.3c1.1-0.2,2-0.4,2.8-0.7c0.7-0.3,1.4-0.7,1.8-1c0.5-0.3,0.9-0.7,1.2-1v-10h-10.5v-6.7h19.3V504.9z"/>
		<path class="st0" d="M875.4,499.6h-19.7l-4.1,11.9h-9.2l19.2-51h7.9l19.3,51h-9.2L875.4,499.6z M858.1,492.5h14.8l-7.4-21.1
			L858.1,492.5z"/>
		<path class="st0" d="M935,511.5h-8.9l-22.7-36.2v36.2h-8.9v-51h8.9l22.8,36.3v-36.3h8.8V511.5z"/>
		<path class="st0" d="M963.3,511.5v-51h15.1c3.4,0,6.5,0.6,9.3,1.7c2.8,1.1,5.2,2.8,7.2,4.9c2,2.1,3.6,4.6,4.7,7.6
			c1.1,3,1.7,6.3,1.7,10v2.5c0,3.7-0.6,7-1.7,10c-1.1,2.9-2.7,5.5-4.7,7.6c-2,2.1-4.5,3.7-7.4,4.9c-2.9,1.1-6.1,1.7-9.6,1.7H963.3z
			 M972.1,467.7v36.7h5.8c2.4,0,4.5-0.4,6.4-1.2c1.8-0.8,3.3-1.9,4.5-3.4c1.2-1.5,2.1-3.3,2.7-5.4c0.6-2.1,0.9-4.5,0.9-7.2v-2.6
			c0-5.5-1.2-9.8-3.6-12.7c-2.4-2.9-5.9-4.4-10.5-4.4H972.1z"/>
		<path class="st0" d="M1037.9,499.6h-19.8l-4.1,11.9h-9.2l19.2-51h7.9l19.3,51h-9.2L1037.9,499.6z M1020.7,492.5h14.8l-7.4-21.1
			L1020.7,492.5z"/>
		<path class="st0" d="M1097.5,511.5h-8.9l-22.7-36.2v36.2h-8.8v-51h8.8l22.8,36.3v-36.3h8.8V511.5z"/>
		<path class="st0" d="M1140.5,489.5l-5.8,6.1v15.9h-8.8v-51h8.8v23.9l4.9-6.1l14.9-17.9h10.7l-18.9,22.6l20,28.4h-10.5
			L1140.5,489.5z"/>
		<path class="st0" d="M1210.6,487.3c0,3.9-0.5,7.3-1.6,10.4c-1,3.1-2.4,5.7-4.3,7.8c-1.8,2.1-4,3.8-6.6,4.9
			c-2.6,1.2-5.5,1.7-8.6,1.7c-3.1,0-6-0.6-8.6-1.7c-2.6-1.1-4.8-2.8-6.7-4.9c-1.9-2.1-3.4-4.7-4.4-7.8c-1-3.1-1.5-6.5-1.5-10.4v-2.6
			c0-3.9,0.5-7.3,1.5-10.4c1.1-3.1,2.5-5.7,4.4-7.8c1.9-2.1,4.1-3.8,6.7-4.9c2.6-1.2,5.4-1.7,8.6-1.7c3.1,0,6,0.6,8.6,1.7
			c2.6,1.1,4.8,2.8,6.7,4.9c1.9,2.2,3.3,4.8,4.3,7.8c1,3.1,1.6,6.6,1.6,10.4V487.3z M1201.8,484.7c0-2.8-0.3-5.4-0.8-7.5
			c-0.6-2.2-1.4-4-2.4-5.5c-1-1.4-2.3-2.6-3.9-3.3c-1.5-0.8-3.3-1.2-5.2-1.2c-1.9,0-3.6,0.4-5.1,1.2c-1.5,0.8-2.8,1.9-3.9,3.3
			c-1.1,1.5-1.9,3.3-2.4,5.5c-0.6,2.2-0.9,4.7-0.9,7.5v2.7c0,2.8,0.3,5.4,0.9,7.6c0.6,2.2,1.4,4,2.5,5.5c1,1.5,2.3,2.6,3.9,3.4
			c1.5,0.8,3.2,1.2,5.1,1.2c3.9,0,6.9-1.5,9.1-4.5c2.1-3,3.1-7.3,3.1-13.1V484.7z"/>
		<path class="st0" d="M1259.9,511.5h-8.8l-22.7-36.2v36.2h-8.9v-51h8.9l22.8,36.3v-36.3h8.8V511.5z"/>
		<path class="st0" d="M1297,498.4c0-1-0.2-2-0.5-2.7c-0.3-0.8-0.9-1.6-1.7-2.2c-0.8-0.7-1.9-1.3-3.3-1.9c-1.4-0.6-3.2-1.3-5.5-1.9
			c-2.4-0.7-4.7-1.6-6.7-2.5c-2.1-1-3.8-2-5.3-3.3c-1.5-1.2-2.6-2.7-3.4-4.3c-0.8-1.6-1.3-3.4-1.3-5.5s0.4-4,1.3-5.7
			c0.9-1.8,2.1-3.3,3.7-4.5c1.6-1.3,3.5-2.3,5.7-3c2.2-0.7,4.7-1.1,7.4-1.1c2.9,0,5.5,0.4,7.7,1.3c2.3,0.8,4.2,2,5.8,3.4
			c1.6,1.4,2.8,3.1,3.6,5c0.8,1.9,1.2,3.9,1.2,6h-8.8c0-1.2-0.2-2.4-0.6-3.4c-0.4-1-1-1.9-1.8-2.7c-0.8-0.8-1.8-1.4-3-1.8
			c-1.2-0.4-2.6-0.7-4.3-0.7c-1.6,0-2.9,0.2-4,0.5c-1.2,0.4-2.1,0.9-2.9,1.5c-0.8,0.6-1.3,1.4-1.7,2.2c-0.4,0.9-0.5,1.8-0.5,2.8
			c0,1.9,0.9,3.5,2.7,4.8c1.7,1.2,4.5,2.4,8.1,3.5c2.9,0.8,5.4,1.8,7.5,2.8c2.1,1,3.8,2.2,5.2,3.5c1.4,1.3,2.4,2.8,3.1,4.4
			c0.7,1.6,1,3.4,1,5.5c0,2.1-0.4,4.1-1.3,5.8c-0.8,1.7-2.1,3.2-3.6,4.4c-1.6,1.2-3.5,2.1-5.7,2.8c-2.2,0.6-4.7,1-7.5,1
			c-2.5,0-4.9-0.3-7.2-1c-2.4-0.7-4.5-1.6-6.4-3c-1.9-1.4-3.4-3-4.6-5c-1.2-2-1.7-4.4-1.7-7.1h8.8c0,1.6,0.3,3,0.9,4.2
			c0.5,1.2,1.3,2.1,2.3,2.8c1,0.8,2.2,1.3,3.5,1.6c1.3,0.3,2.8,0.5,4.4,0.5c3.1,0,5.4-0.6,7-1.9C1296.2,502.1,1297,500.4,1297,498.4
			z"/>
		<path class="st0" d="M1350.9,460.5v34.1c0,2.9-0.5,5.5-1.5,7.7c-1,2.2-2.4,4-4.1,5.5c-1.7,1.5-3.8,2.5-6,3.3
			c-2.3,0.7-4.8,1.1-7.4,1.1c-2.7,0-5.3-0.4-7.6-1.1c-2.3-0.8-4.3-1.9-6-3.3c-1.7-1.5-3-3.3-4-5.5c-1-2.2-1.4-4.7-1.4-7.7v-34.1h8.8
			v34.1c0,1.8,0.2,3.4,0.7,4.7c0.5,1.3,1.1,2.4,2,3.3c0.9,0.9,2,1.5,3.3,1.9c1.2,0.4,2.7,0.6,4.2,0.6c1.6,0,3-0.2,4.2-0.6
			c1.3-0.4,2.3-1,3.3-1.9c0.8-0.8,1.5-2,2-3.3c0.5-1.3,0.7-2.9,0.7-4.7v-34.1H1350.9z"/>
		<path class="st0" d="M1369.2,504.4h23.1v7.1h-32v-51h8.8V504.4z"/>
		<path class="st0" d="M1428.7,467.7h-15.9v43.8h-8.8v-43.8h-15.8v-7.2h40.4V467.7z"/>
		<path class="st0" d="M1459.8,499.6H1440l-4.2,11.9h-9.2l19.3-51h7.9l19.3,51h-9.2L1459.8,499.6z M1442.5,492.5h14.8l-7.4-21.1
			L1442.5,492.5z"/>
		<path class="st0" d="M1505.6,498.4c0-1-0.2-2-0.4-2.7c-0.3-0.8-0.9-1.6-1.7-2.2c-0.8-0.7-1.9-1.3-3.3-1.9
			c-1.4-0.6-3.2-1.3-5.4-1.9c-2.4-0.7-4.7-1.6-6.7-2.5c-2-1-3.8-2-5.3-3.3c-1.5-1.2-2.6-2.7-3.5-4.3c-0.8-1.6-1.2-3.4-1.2-5.5
			s0.4-4,1.3-5.7c0.9-1.8,2.1-3.3,3.7-4.5c1.6-1.3,3.5-2.3,5.7-3c2.2-0.7,4.7-1.1,7.4-1.1c2.9,0,5.4,0.4,7.7,1.3
			c2.3,0.8,4.2,2,5.8,3.4c1.6,1.4,2.8,3.1,3.6,5c0.8,1.9,1.3,3.9,1.3,6h-8.8c0-1.2-0.2-2.4-0.6-3.4c-0.4-1-1-1.9-1.8-2.7
			c-0.8-0.8-1.8-1.4-3-1.8c-1.2-0.4-2.6-0.7-4.3-0.7c-1.6,0-2.9,0.2-4,0.5c-1.2,0.4-2.1,0.9-2.9,1.5c-0.8,0.6-1.3,1.4-1.7,2.2
			c-0.4,0.9-0.5,1.8-0.5,2.8c0,1.9,0.9,3.5,2.7,4.8c1.8,1.2,4.5,2.4,8.2,3.5c2.9,0.8,5.4,1.8,7.4,2.8c2.1,1,3.8,2.2,5.3,3.5
			c1.4,1.3,2.4,2.8,3.1,4.4c0.7,1.6,1,3.4,1,5.5c0,2.1-0.4,4.1-1.3,5.8c-0.8,1.7-2,3.2-3.6,4.4c-1.6,1.2-3.5,2.1-5.7,2.8
			c-2.2,0.6-4.7,1-7.5,1c-2.4,0-4.9-0.3-7.2-1c-2.4-0.7-4.5-1.6-6.4-3c-1.9-1.4-3.4-3-4.6-5c-1.2-2-1.7-4.4-1.7-7.1h8.9
			c0,1.6,0.3,3,0.9,4.2c0.6,1.2,1.3,2.1,2.3,2.8c1,0.8,2.2,1.3,3.5,1.6c1.4,0.3,2.8,0.5,4.4,0.5c3.1,0,5.4-0.6,6.9-1.9
			C1504.8,502.1,1505.6,500.4,1505.6,498.4z"/>
		<path class="st0" d="M1531.5,511.5h-8.8v-51h8.8V511.5z"/>
		<path class="st0" d="M1600.7,511.5h-8.9l-22.7-36.2v36.2h-8.8v-51h8.8l22.8,36.3v-36.3h8.8V511.5z"/>
		<path class="st0" d="M1640.3,499.6h-19.7l-4.1,11.9h-9.2l19.3-51h8l19.3,51h-9.2L1640.3,499.6z M1623.1,492.5h14.8l-7.4-21.1
			L1623.1,492.5z"/>
		<path class="st0" d="M1686.2,498.4c0-1-0.2-2-0.4-2.7c-0.3-0.8-0.9-1.6-1.7-2.2c-0.8-0.7-1.9-1.3-3.3-1.9
			c-1.4-0.6-3.2-1.3-5.4-1.9c-2.4-0.7-4.6-1.6-6.7-2.5c-2-1-3.8-2-5.3-3.3c-1.5-1.2-2.6-2.7-3.5-4.3c-0.8-1.6-1.2-3.4-1.2-5.5
			s0.4-4,1.3-5.7c0.8-1.8,2.1-3.3,3.7-4.5c1.6-1.3,3.5-2.3,5.7-3c2.2-0.7,4.7-1.1,7.3-1.1c2.9,0,5.5,0.4,7.7,1.3
			c2.3,0.8,4.2,2,5.8,3.4c1.6,1.4,2.8,3.1,3.6,5c0.8,1.9,1.3,3.9,1.3,6h-8.8c0-1.2-0.2-2.4-0.6-3.4c-0.4-1-1-1.9-1.8-2.7
			c-0.8-0.8-1.8-1.4-3-1.8c-1.2-0.4-2.6-0.7-4.3-0.7c-1.6,0-2.9,0.2-4,0.5c-1.2,0.4-2.1,0.9-2.9,1.5c-0.8,0.6-1.3,1.4-1.7,2.2
			c-0.3,0.9-0.5,1.8-0.5,2.8c0,1.9,0.9,3.5,2.7,4.8c1.8,1.2,4.5,2.4,8.2,3.5c2.9,0.8,5.3,1.8,7.4,2.8c2.1,1,3.9,2.2,5.3,3.5
			c1.4,1.3,2.4,2.8,3.1,4.4c0.7,1.6,1,3.4,1,5.5c0,2.1-0.4,4.1-1.3,5.8c-0.9,1.7-2,3.2-3.6,4.4c-1.6,1.2-3.5,2.1-5.7,2.8
			c-2.2,0.6-4.7,1-7.5,1c-2.4,0-4.9-0.3-7.2-1c-2.4-0.7-4.5-1.6-6.4-3c-1.9-1.4-3.4-3-4.6-5c-1.2-2-1.7-4.4-1.7-7.1h8.9
			c0,1.6,0.3,3,0.9,4.2c0.6,1.2,1.4,2.1,2.3,2.8c1,0.8,2.1,1.3,3.5,1.6c1.4,0.3,2.8,0.5,4.4,0.5c3.1,0,5.4-0.6,7-1.9
			C1685.4,502.1,1686.2,500.4,1686.2,498.4z"/>
		<path class="st0" d="M1712.1,511.5h-8.8v-51h8.8V511.5z"/>
		<path class="st0" d="M1763.7,487.3c0,3.9-0.5,7.3-1.5,10.4c-1,3.1-2.5,5.7-4.3,7.8c-1.8,2.1-4.1,3.8-6.7,4.9
			c-2.6,1.2-5.5,1.7-8.6,1.7c-3.1,0-6-0.6-8.6-1.7c-2.6-1.1-4.8-2.8-6.7-4.9c-1.9-2.1-3.3-4.7-4.4-7.8c-1-3.1-1.6-6.5-1.6-10.4v-2.6
			c0-3.9,0.5-7.3,1.6-10.4c1-3.1,2.5-5.7,4.3-7.8c1.8-2.1,4.1-3.8,6.7-4.9c2.6-1.2,5.5-1.7,8.6-1.7c3.2,0,6,0.6,8.6,1.7
			c2.6,1.1,4.8,2.8,6.7,4.9c1.8,2.2,3.3,4.8,4.3,7.8c1,3.1,1.5,6.6,1.5,10.4V487.3z M1754.8,484.7c0-2.8-0.3-5.4-0.8-7.5
			c-0.5-2.2-1.3-4-2.4-5.5c-1.1-1.4-2.3-2.6-3.9-3.3c-1.5-0.8-3.3-1.2-5.2-1.2c-1.9,0-3.6,0.4-5.1,1.2c-1.5,0.8-2.8,1.9-3.9,3.3
			c-1.1,1.5-1.9,3.3-2.5,5.5c-0.6,2.2-0.8,4.7-0.8,7.5v2.7c0,2.8,0.3,5.4,0.8,7.6c0.6,2.2,1.4,4,2.5,5.5c1.1,1.5,2.4,2.6,3.9,3.4
			c1.6,0.8,3.2,1.2,5.1,1.2c3.9,0,7-1.5,9-4.5c2.1-3,3.2-7.3,3.2-13.1V484.7z"/>
		<path class="st0" d="M1812.9,511.5h-8.9l-22.7-36.2v36.2h-8.8v-51h8.8l22.8,36.3v-36.3h8.8V511.5z"/>
		<path class="st0" d="M1852.6,499.6h-19.7l-4.1,11.9h-9.2l19.3-51h8l19.3,51h-9.2L1852.6,499.6z M1835.3,492.5h14.8l-7.4-21.1
			L1835.3,492.5z"/>
		<path class="st0" d="M1880.6,504.4h23.1v7.1h-32v-51h8.8V504.4z"/>
	</g>
	<path class="st1" d="M806.1,340.4c-77.5,39.5-197.5,64.8-332.2,64.8c-233.9,0-423.4-76.3-423.4-170.4c0-27.3,16-53.1,44.4-75.9
		c-1.6-0.9-2.8-1.6-3.3-1.8l-0.5-5.2c0,0-4.4-4.4-9.2-9.4c-0.9-1-1.5-2-2.1-2.9c-4.7,3.3-9.2,6.6-13.5,10c0.9,0.7,2,1.5,3.2,2.3
		c3.1,2.1,6.4,4.3,4.9,6.3c-2.8,3.5-7,0.3-7,0.3s-2.3-1.7-4.8-3.2c-0.6-0.4-1.2-0.7-1.8-1.1c-28.5,24.3-44.5,51.6-44.5,80.5
		c0,101.6,198,184,442.3,184c146.9,0,277-29.8,357.5-75.7c-1-0.1-2.2-0.4-3.8-0.7C809.3,341.5,807.2,341.1,806.1,340.4z"/>
	<path class="st1" d="M897.4,234.8c0,22.3-10.8,43.6-30.2,63.2c0,2.3,0,4.7,0,7c21.7-21.7,33.7-45.5,33.7-70.4
		c0-24.8-11.9-48.5-33.3-70.2c-0.6,1.9-1.2,3.7-2,5.5C886.1,189.9,897.4,211.8,897.4,234.8z"/>
	<path class="st1" d="M120.1,135.9c1.4,0.9,2.8,1.8,4.3,2.7c22.5-13.2,49.4-25.1,80-35.3c-1.4-4.4-2.2-9.1-2.3-13.9
		c0-0.4,0-0.9,0-1.3c0-1.2,0.1-2.3,0.1-3.5c-37,11-69.7,24.2-97,39.3C108.1,129.3,113.8,131.9,120.1,135.9z"/>
	<path class="st1" d="M611.1,73.5c1.5-3.8,3.4-7.5,5.8-10.8c-34.5-5.5-71-9.3-109-11c1.8,4.2,3,8.6,3.6,13.3
		C546.1,66.2,579.4,69.1,611.1,73.5z"/>
	<path class="st1" d="M411,66.2c0.5-5.2,1.9-10.1,3.9-14.8c-41.3,1.7-80.9,5.7-118.1,11.8c2.7,4.8,4.7,10.1,5.7,15.6
		C336.5,72.8,372.9,68.5,411,66.2z"/>
	<path class="st1" d="M708.9,93c26.1,7,50.1,15.2,71.7,24.3c1.9-2.2,3.9-4.2,6.1-6c-23.4-10.8-49.8-20.4-78.7-28.6
		c0.5,3,0.8,6,0.8,9.1C708.9,92.2,708.9,92.6,708.9,93z"/>
	<path class="st2" d="M481.6,228.2c-5.3,5.3-2.6,9.5-5.8,10.3c-5.1-0.6-4.2,4-4.7,6.2c-0.5,2.2,1.3,7.1,2.3,9.4
		c1,2.3,3.8,2.6,7.1,1.2c3.3-1.4,4.2,0.2,4.9,1.7c0.7,1.6,1.3,9.7,0.8,13.1c-0.5,3.3-2.2,7.6-4,9.5c-1.7,1.8-2.1,3.5-1.4,7.5
		c0.7,4,4,3.9,6.7,3.6c2.8-0.4,12.2-0.1,14.7,0.5c2.5,0.6,1.2-1.9,1.5-4.3c0.3-2.4-1.1-2.5-2.4-3.8c-1.3-1.3-1.8-2.1,0.7-6.3
		c2.5-4.2,0.4-13.4,0.4-14.9c0-1.5,1-3.9,1.3-5.6c0.3-1.7-0.2-3.9-2.1-7.2c-1.9-3.4,1.6-5.5,4.1-6.7c2.5-1.2,5.1,0.9,6.6,2.8
		c1.6,1.9,1.3,3.5-1.2,6.9c-2.5,3.3,1.2,7,6.4,9.9c5.2,2.9,3.4,6.3,3.4,10.2c0.1,3.8,2.4,6.7,4.7,8.1c2.2,1.5,1.7,3.9,2.5,6
		c0.8,2.1,2.3,1.8,2.3,1.8s7-0.3,9.6,2.6c2.6,2.9,3,1.8,4.8,1.8c1.8,0,2.4-1.3,3.6-2.4c1.2-1.1,2.9-2.9,5.1-3.2c2.2-0.3,2-1,2-1
		s-1.5-2.1-3.7-2.3c-2.2-0.2-1.3-1.7-1.6-3C550,279,551,279,551,279s1.1,0.1,2.5,0c1.4-0.1,0.4-5,0.4-6.8c0-1.8-1.3-0.5-2.2-0.8
		c-0.9-0.3,0-1.9,0-1.9s2.2-2,2.9-3.1c0.7-1.1-2.2-3.3-3.5-3.4c-1.3-0.2-6.4,1.2-6.4,1.2c-1-2.4-7.6-4.6-7.6-4.6s-0.4-4.1-0.5-5.3
		c-0.2-1.2,2.3-2.7,3.4-3.8c1-1.1-0.2-1.8-0.2-1.8c-1.4-2.9-15.5-16.1-15.5-16.1l7.1-7.1c4.1,0.6,10.3-2.9,11.3-4.1
		c0.9-1.1,1.7-1,2.1,1.2s5,2.2,8.4,3.2c3.4,0.9,3.9-1.5,5.5-2.4c1.6-0.9,1.6-3.1,1.5-4.4c-0.2-1.3-1.2-1.4-1.2-2.8
		c0-1.4-0.4-2,0.7-3.1c1.1-1.1,0.3-2.1,0.3-2.1c-1.9-2.6-7.7-3.4-10.1-3.3c-2.3,0.1-4.7,1.3-4.7,1.3c-7.6,0-12.2,3-13.9,4.5
		c-1.7,1.5-2.3,0.5-2.3,0.5c0-3.3-5.7-3.3-5.7-3.3c-1.9-0.3-1.6,1.6-3.2,3.4c-1.2,1.5-3.3,3.1-4.7,4c-3.4,2.2-5,0-5,0
		s-3.4-3.4-4.9-5c-1.5-1.6-2.3-1.6-2.3-1.6h-4.3l-1-12.4c1.6-3.8,6.4-7,6.4-7s39.2,1.5,41.8,0.5c2.6-0.9,5.9,0.6,6.9,1.8
		c1,1.2,1.9,2,4.2,1c2.3-1,12.6-1.6,15.7-1c3.1,0.6,4-1.3,4-1.3s12-14.7,14.4-17c2.3-2.2-1.9-6.6-3.2-8c-1.3-1.4-2.8,0.7-2.8,0.7
		l-10.3,8.8l-8.8,6.3c-7.5-2.1-20.1-1.4-20.1-1.4c-5.6-3-18.6-2.1-22.8-5.1c-4.2-2.9-10.5-3.1-12.9-2.2c-2.4,0.9-2,4.5-4.6,7
		c-2.6,2.5-1,1.4-3.3-1.3c-2.3-2.7-3.4,0.4-3.4,0.4s-7.4,9.7-8.9,12c-1.5,2.2-1,9.7-0.6,12.6c0.4,2.8-2,4.2-2,4.2
		c-8.4,6-6.6,13.1-6.1,14.4C481.8,225.9,483.1,226.6,481.6,228.2z M531.4,278.7c0.6-0.9,1.9-0.3,1.9-0.3s0.2-3.4,0.3-5
		c0.1-1.1,2.5-1.7,4.5-1.7c1,0.1,2-0.2,2.3,0.9c1.1,3.2-0.9,1.6-3,3.2c-2.2,1.5-0.3,4-1.2,5.8c-0.5,0.9-1.6,0.5-2.7,0.5
		c-1.1-0.1-2.1,0.3-2.4-0.1C530.5,281.2,530.7,279.6,531.4,278.7z"/>
	<path class="st2" d="M91.1,151.8l0.5,5.2c0.5,0.3,1.7,1,3.3,1.8c5.5,3,15.4,8.4,15.4,8.4c0.8,0.5,2.1,1.5,2.8,2.9
		c0.6,1.2,0.3,2.7,0.7,4.4c0.6,2.3,1.7,5,2.4,7.4c1.3,4.6,2.9,8.5,2.9,8.5c0.6,3.1,4.6,3.6,8.1,5.5c2.4,1.3,4.5,3.6,4.5,3.6
		c0.2,0.6,1.8,3.2,3.8,5.7c1.4,1.7,2.9,2.9,4.3,4.9c1.9,2.7,3.1,6.3,4.7,8.8c2.7,4.2,5.2,6.8,5.2,6.8c0.9,11.9,3.1,9.1,6.5,13.5
		c3.4,4.4,7.7,8.9,11.3,11.8c4.5,3.6,8,5,7.9,5c-0.2,0,0.5,4.8,0.5,4.8c2.2,2.5,7.7,6.9,11.3,8.9c2.4,1.4,3.6,1,3.6,1s2,3.4,3.7,5.1
		c1.7,1.7,5.2,1.7,5.2,1.7s4.3,2.7,10.2,7.9c5.9,5.2,6.8,7.9,9.4,9.3c3.8,0.8,2.6-3.4,2.7-4.7c0.1-1.3,1.7-0.6,1.7-0.6
		c4.9,3.4,8.4-2.6,8.4-2.6l1.9,0.1c0.4,2.3,1.8,4.3,3.4,4.6c2,0.3,4.3-1.7,5-5.1c0.7-3.4,0.3-8,0.3-12.8c-0.1-9.8-0.5-20-0.5-20
		c2.6-1.5,4.4-5.1,4.4-7.2c0-2.1,0.7-2.2,0.7-2.2l2.2,1.9h11.7c-0.6-11.3-6.4-9.2-9.5-11.3c-3-2.1-2.3-10.3-2.3-10.3
		c-15.8-9-17.6,1.2-17.6,1.2c-5.6-1-6.9,3.3-6.9,3.3l-4.9-3.4c0.9-13.4-6.8-13.1-12.6-14.1c-3.3-0.6-6-1.7-6-1.7
		c-2.5-1.3,0.8-4.4,2-6.8c0.7-1.4,0-2.4,0-2.4c-0.9-1.2,0-1.7,1.1-2.5c1.1-0.9,2.4-2.2,2.4-2.2c1.1-1.5-3.2-5.1-6.9-7.1
		c-2.1-1.2-4-1.5-4.5-1.6c-1.3-0.5-1.4-1.1-1.4-1.1c1.6-10.9-10.7-9.8-10.7-9.8c5.4-7.9-13-7.2-13-7.2s-0.7-5.3-1.7-6.9
		c-2.3-2.4-10-2.3-10-2.3c-5.3-3.6-9.3-1.6-11.5-0.1c-3.4,0.7-2.5-1.8-2.5-1.8c-0.5-6-10.4-12.7-20.5-19.1c-1.4-0.9-2.9-1.8-4.3-2.7
		c-6.3-4-12-6.6-14.9-12c-0.1-0.1-0.2-0.2-0.3-0.4c-4.1-8.3-7.8-9.9-12.9-12.6c-5.1-2.7-23.2-1.6-23.2-1.6
		c-9-10.1-17.9-6.4-17.9-6.4c-0.7,4.8-0.7,8.9,0.9,12.4c3,6.5,9.5,11.9,16.1,16c3.1,2,6.2,3.1,8.9,5c1.5,1,2.2,2.1,2.9,3.1
		c0.6,1,1.2,2,2.1,2.9C86.8,147.4,91.1,151.8,91.1,151.8z"/>
	<path class="st2" d="M67.4,158.3c0,0,4.2,3.3,7-0.3c1.6-2-1.7-4.2-4.9-6.3c-1.2-0.8-2.3-1.6-3.2-2.3c-0.9-0.7-1.5-1.2-1.5-1.2
		s-3.1-0.7-6.4-0.6c-2.8,2.8-0.6,4.6,2.3,6.4c0.6,0.4,1.2,0.7,1.8,1.1C65,156.6,67.4,158.3,67.4,158.3z"/>
	<path class="st2" d="M89.6,170.9c-3.9,0-6.6,0.4-6.6,1.8c0,1.4-0.7,2.5,3.9,4l0.1,1.7l5.3,5.3c0,0-0.7,3.7,1.5,3.7
		c2.2,0,5.2,0.6,5.2-1.4c0-2,0-7.2-2.2-9.8C94.6,173.7,93.5,170.9,89.6,170.9z"/>
	<path class="st2" d="M109,195.1h7.6c0,0-0.9-4.6-4-4.6c-3.2,0-2.8,2.4-6.7,3.3c-2.6,1.7-0.5,3-0.2,3.9v4.4c0,0-2.5,0.9-1.9,2.7
		c0.6,1.8,3,2.1,4.1,0.6c1.1-1.4,3.5-3.7,3.5-4.6C111.4,196.4,108.6,197.9,109,195.1z"/>
	<path class="st2" d="M118.6,212.2c-0.7-2-1.5-2-4.6-2.4c-3-0.4-3.4,0.8-3.4,0.8c-3.5,8.2,5.2,13.4,5.2,13.4s4.2,3.1,7.8,0.4
		c2.2-1.7-0.6-5.1-2.7-8C119.6,214.5,118.9,212.9,118.6,212.2z"/>
	<path class="st2" d="M144.9,242.8c-6-6.7-10.5-9.4-10.5-9.4c-3.5-2.6-1.7-2.3-2.3-4.8c-0.6-2.5-3.9-1.2-3.9-1.2
		c-2.4,1.2-2.6,2.8-2.6,2.8c-1.5,3.3,2.4,3.5,3.5,4c2.2,0.8,4.1,0.4,4.5,3.9c0.4,4.5,3.5,3.1,6,9.1c2.2,3.8,4.8,0.7,6.1-1.1
		C147,244.2,144.9,242.8,144.9,242.8z"/>
	<path class="st2" d="M271.1,240c0.7,1-0.1,2.7-0.1,6.7c0.2,3.4,6.6,2.5,10.2,3c2.3,0.3,2-0.8,2.4-3c0.2-1.2,1.2-3.2,1.9-4.3
		c1.1-1.9-0.4-2.3-2.3-3.3c-1.3-0.7-2.8-1.9-3.8-2.6c-1.2-0.9-3-0.7-4.6-0.1c-1.6,0.5-3,1.4-3.7,1.9
		C269.6,239.2,271.1,240,271.1,240z"/>
	<path class="st2" d="M418.7,333.8c-4.2-1.9-6.7-7.9-11.1-6.4c-1.5,0.6-2.2,2-2.2,2l-8.9,0.1v-3.9c0,0,0.2-3.4-6-3.4
		c-6.2,0-19.5,2.4-23.3-1.3c-0.4-1.3-0.9-3.3-0.5-4c0.7-1.2,2.2-0.9,3.2-1c0,0,11.8,0.7,16.7-2.1c4.9-2.7,6.5-4.5-2-5
		c-8.6-0.5-39.3,1.3-51.5-7.1c0,0-3.3-2.1-6,0c-2.8,2.1-4.3,6.2-4.3,6.2s-22-0.7-31.6-3.9c0,0-2.6-8-18.6-8c0,0-7-8.2-13.5-2.5
		c0,0-14.5-3.4-16.4-1.3c-0.6,0.7-1.4,1.1-2.3,2.3c-0.6,0.9-1.4,2.6-2.1,3.5c-1.6,2-3.7,2.8-3.9,5.7h-4.7c0,0-3.5,2.7,0,5.5h4.7
		c0,0,11.8-0.5,14.1,1.8v5.1c0,0,0.7,2.1,4,2.1c3.2,0,12.1,0.5,13.9,1c1.8,0.6,5.2,3.6,12.7,4c7.6,0.3,30.2,0.3,30.2,0.3
		s8.2,9.4,27.6,8.8c0,0,3.4,5.6,9.6,1.6c0,0,2.5,0.1,6.2,1.5c3.7,1.3,8.5,2.2,9.9,1.6c4-0.8,6.3-3.6,8.8-2.6
		c2.5,1,15.3,5.9,17.6,6.7c2.3,0.9,7.2,4.7,10.6-3c1.3-1.6,3.4,0.1,3.4,0.1s3.1,2.7,3.3,3.7c0.2,1,0.9,1.5,1.8,1.2
		c0.9-0.2,2.8-4.1,3.7-4.4c0.9-0.3,3.4-0.6,4-1.2C416.4,336.9,420.8,335.4,418.7,333.8z"/>
	<path class="st2" d="M296,203.5c-0.4,3.1,0.5,3,0.5,3l6.1,3.9c0,0,0.1,5,0,8c-0.1,3,0.7,1.9,0.7,1.9s3.7-3.4,8.4-2
		c4.8,1.4-0.5,6.9-0.5,6.9c-0.9,1.1,0.1,3.6,1.4,7.3c1.5,4.2,3.4,9.6,3.4,9.6s-0.8,3.5,7.3,6.1c8,2.5,11.9-0.7,11.9-0.7
		s4.8-1.4,7.1-0.2c2.3,1.2,2.6,8.6,2.6,8.6l14.2-0.4c0,0,7.7-2.9,10.4-4.5c2.8-1.6,3.6,0.1,3.6,0.1c8.1,8.4,11.5,1.7,18.5,3.7
		c7,2.1,5.1,13,5.1,13l21.9-8.6c3.5,4.9,8.9,6.7,8.9,6.7l1.7-24.3c9.1-1.8,2.5-12.9,1.3-15.4c-1.3-2.5,0.4-2.7,0.4-2.7
		s17-9.1,20.4-13.1c3.3-4-0.3-4.5-1.4-8.2c-1-3.7,5.2-13.7,6.2-15.5c1-1.9,7.5-0.2,12.4,0.4c4.9,0.5,10.6-4,10.6-4
		c2.1-1-1.6-2.3-5.9-4.8c-4.5-2.6-9.6-6.3-9.6-6.3s-4.7-3.4-4.5-5.8c0.2-2.4,3.7-4.3,4.2-5c0.5-0.7-7.8-9.9-10.1-12.4
		c-2.3-2.5-0.6-2.6,2.1-7.1c2.7-4.5,0-11.5,0-11.5c-0.4-1.2-5.1-0.5-11-0.9c-5.2-0.3-11.4-1.5-16-1.8c-4.1-0.3-7,0.1-7,0.1
		c-8,0-7.6,16.4-7.6,16.4c-13,8.2-11.4,15.3-11.4,15.3c-4.5,4-6.4,14-6.4,14c-3.8,0-11.3,1.7-16.1,3.7c-4.8,2.1-6.4,0.2-6.4,0.2
		l-6.6-4l-10.9-0.2l-7.5,9l-16.1,0.2c0,0-4.5,0.2-6.5,1.4c-2,1.2-2.6,0.3-2.6,0.3L310.5,170v-6c-0.5-2-4.4,0.1-6.9,0.7
		c-1,0.5-1.1,1-1.1,1s-8.9,13.9-10.5,17.6c-1.6,3.7,2,10.7,3.4,12C296.8,196.7,296.3,200.4,296,203.5z"/>
	<path class="st2" d="M481.3,339.5c0.6-3-1.3-3.2-3.1-4.3c-1.8-1.1-2.3-3.6-2.3-3.6l-12.7-0.7c0,0-1.6-3.7-6.5-3.3
		c-6.5,0.1-8.5,5.3-8.5,5.3c-5-0.3-7.7,2.2-8.8,2.8c-1.1,0.6-2,0.4-2,0.4c-1.6-8.1-9.8-6-9.8-6c-0.4,0.1-3.4,0.9-4,1.6
		c-0.2,0.3-0.3,1.5-1.1,3c-1.4,2.4-3.9,5.3-3.9,5.3s-2.6,3.2,1.1,4.1c8.7-0.1,13.1,0.8,13.1,0.8c2.2,0.1,4.1,1.1,5.8,1.3
		c3.2,0.5,5.5,0.4,7.3,0.3c2.7-0.1,4.2-2.3,4.2-2.3s6.4,0.2,8.5,0c2.1-0.2,5.2-2,5.2-2l13.5-0.3
		C477.2,341.9,480.7,342.5,481.3,339.5z"/>
	<path class="st2" d="M501.9,353.4c-1.2-0.7-4.1-0.6-6.3-2.6c-2.2-2-18.4-1.6-20.2-1.6c-1.8,0-3.6,1.6-3.6,4.2
		c0,2.7,3.6,3.3,3.6,3.3c8.4,0.2,12.1,1.6,17.6,6.4c5.5,4.9,6.8,3.1,11.8,2.4c5-0.7,1.8-4.3,1.8-6.2
		C506.5,357.4,503.1,354,501.9,353.4z"/>
	<path class="st2" d="M550.8,338c3.7,3,6.9,1.2,7.9,0.2c1-1,1.2-3.3,3.1-0.9c1.9,2.4,3.8,2.7,7,0.6c3.2-2.1,10.5-1.1,14-1.5
		c3.5-0.3,3.5-3.1,3-4.6c-0.5-1.5-10.2-1.6-12.7-1.8c-2.5-0.2-2.2,1.6-2.2,1.6c-0.5,0.1-4.1-0.7-8.4-0.8c-6.6-0.2-14.6,0.1-14.6,0.1
		c-1.2-3.4-6.6-5.2-7-1.4c-0.3,3.7-4.9,6.1-4.9,6.1l-20.7-0.8c0,0-4.9-3.2-9-4.7c-4.1-1.5-10.8,0.6-10.8,0.6
		c-1.9,0.3-8.2,3.6-8.4,6.7c-0.2,3.1,2.7,4.3,2.7,4.3c2.4,0.9,7,0.7,12.2,1.1c4.1,0.2,8.5,1.1,12.4,1.1c8.9,0.1,16.8-1.7,22.7-2.2
		c5.9-0.4,10.6-3.3,10.6-3.3S548.7,336.8,550.8,338z"/>
	<path class="st2" d="M609.1,337.3c-5.5,0.4-11.6-0.3-16.3,0.5c-10.4,1.8-10.8,7.2-10.8,7.2c-3.1,0.2-7.5,4.5-7.5,4.5
		c-11.8,0-17.1,5.3-21,17c-5.5,5.1-11,8.2-11,8.2c-0.8,0.6-2.3,0.7-0.8,2.1c3.4,2.3,7.7,1.6,7.7,1.6c2.8-0.8,5.3-7.4,6.2-9.5
		c0.9-2,2.4-0.9,2.4-0.9s5.6,0.9,11.3,0.2c5.7-0.7,20.1-16.5,20.1-16.5c8.8,1.7,13.6-4.5,13.6-4.5s8.9-1.9,15.9-4.4
		c7-2.5,3.4-6.3,3.4-6.3C621,335.1,615.6,336.8,609.1,337.3z"/>
	<path class="st2" d="M595.6,325.9c-0.3,1-0.9,1.4-0.4,2.3c1.3,2.6,2.2,0.7,2.2,0.7s6.3-0.8,8.1,0.1c1.8,0.9,2.2,1.4,2.9,0.3
		c0.7-1,3.7-1.8,5.5-2.1c1.8-0.3,2.2-1.6,0.9-3.8c-1.3-2.2-5.3-1.4-5.3-1.4s-2.4-0.3-3.5,0c-1.1,0.3-7,0.6-7,0.6
		C596.8,322.8,596,324.2,595.6,325.9z"/>
	<path class="st2" d="M588.1,226.8c-1-1.2-4.5-0.4-5.6-0.4c-1.1,0-4.9-0.2-7.3-0.6c-2.5-0.4-5,4.5-2.3,7.3c2.8,2.8,3.8,0,3.8,0
		l21.1-0.1c2.9,0,0.5,7.7,4.6,8.3c1.1,0.7,2.2-0.9,3-1.8c0.9-1,0-2.3-1-3.3c-1-1-1-2.9-1-2.9s0.9,0.1,3.2,0.1c2.2,0,2.2-1.6,2.2-3.2
		c0-1.6-1.8-1.7-1.8-1.7h-16.6C590.3,228.4,589.1,227.9,588.1,226.8z"/>
	<path class="st2" d="M620.7,249.6c-3.5-2.1-16-0.3-19.5,0.9c-3.5,1.2-1.1,2.9-1.1,2.9s5.1,5.9,8.7,9.3c3.6,3.3,6.6,1.8,10.6,0.8
		c4-0.9,5.8-2,6.5-5.2C626.7,255.1,624.1,251.8,620.7,249.6z"/>
	<path class="st2" d="M635.7,229.5c1.3,1,4.1-0.1,5.2-1.1c1-1,2.5-3.3-0.7-3.7c-3.2-0.3-7.2-4.8-9.6-3.8c-2.4,1-4.1,2-3.7,4.4
		c0.3,2.5-0.1,5.8,6.3,4.2C633.1,229.5,634.4,228.4,635.7,229.5z"/>
	<path class="st2" d="M630.8,215.8c6.2,4.1,4.5-6,9.6-1.6c5.2,4.4,6.1,1.6,4.9-2.2c-1.1-1.9-5.8-2.7-6.6-9.6c-0.9-7-2.3-9.2,1.7-8.5
		c4.1,0.7,4,2.1,7.2,3.6c3.2,1.5,6.8,1.6,7.1,0.1c0.3-1.5,0.9-2.4-3.7-5.2c-4.6-2.8-6.5-3.1-6.5-3.1s-1-1.5,1.5-2.8
		c2.6-1.2,2.9-2.2,4.5-4.3c1.6-2.2,4-4,2.6-6.2c-1.4-2.2-2.2-2.4-4.6-1.7c-2.3,0.7-5.1,1.5-6.2,3.2c-1.2,0.4-2-0.8-2.2-2
		c-0.3-1.2-2.1-2.8-0.9-4.9c1.2-2.1,1.5-2.8,1.5-2.8s0.5-0.5,1.4,0c0.9,0.5,0.9,2.7,4,0c3-2.7,9-5.9,6.5-8.1
		c-2.6-2.2-5.4-1.8-7.2-0.7c-1.8,1.1-8.4,4.8-9.4,5.5c-0.9,0.7-7.1,7.7-7,10.1c0.2,2.3,0,13.3,1.2,16.4c1.2,3.2,1.4,5,1.4,5
		l-0.1,8.2c0,0-3.1,1.2-4.4,1.2c-1.3,0-1.6,0.1-1.7,1.5C625.2,208.2,624.6,211.7,630.8,215.8z"/>
	<path class="st2" d="M681.1,249.8c-1.2-1.7-4.5-1.8-7.4-2.2c-2.6-0.4-4.8-1.1-4.8-1.1h-29.7c-0.5,0.2-0.5,0.6-1.2,1.1
		c-1.2,0.9-3.2,2.3-4.1,3.4c-1.3,1.7-0.3,3.9,1.5,6.6c1.3,2,1.7,1.7,3.1,0c0.5-0.6,1.7-1.2,2.2-2.1c2.2-3.2,0.4,2.2,4.5,2.2
		c4.1,0,4.4-1.5,5.4-2.8c1-1.4,3.6,0.7,5.9,2.1c0.8,0.5,1.7,0,2.8,0.1c2.1,0.1,4.5,0.2,5.7-0.9c1.7-1.6,3.6-0.1,3.6-0.1
		s11.9,7.9,15.9,8.4c4.1,0.5,3.6-4.2,4-5.9C688.9,257.1,681.1,249.8,681.1,249.8z"/>
	<path class="st2" d="M743.8,316.2c2.3,0.2,4.4-0.7,6.6-3.1c2.2-2.4,3.3-2.8,4.9-3.3c1.6-0.5,2.1-2.8,1.2-3.9
		c-0.9-1.1,0.8-3.8,0.4-6.9c-0.4-3.1,1.3-8.3-3.2-9.9c-2.2-0.8-3.5,1-5.5,3.1c-2.1,2.3-4.5,4.9-2.8,5.1c0,0,1,0.7,0,1.8
		c-1,1.2-2.6,1.5-2.7,3.3c-0.1,1.8-0.3,7-0.3,7s-1.8,0.6-1.3,1.9C741.6,312.6,741.5,316,743.8,316.2z"/>
	<path class="st2" d="M867.2,298c0.2-25.3,0.3-50,0.3-51.2c0-2.6-1.4-2.5-1.4-2.5c-4.1-2.4-21.4-3.3-21.4-3.3
		c-1.1-1.7-8.2-5-14.8-5.7c-1.5-0.7-4.4-2.2-5.9-3c-5.8-3.3-8.8-6-8.8-6c-4.7-3.4-7.5,0.4-9.8,1.5c-1.8,0.8-3.2-0.4-4.9,1.4
		c-1.7,1.9-1.4,6.2-5.8,6.3c-13.9,0.6-23.5,19.5-23.5,19.5h-12.4l-3.2-5.3c0,0,0.2-6.2,0-8c-0.2-1.9-0.6-2.3-2-2.9
		c-1.5-0.6-4.1,3.4-4.1,3.4h-2.8l-0.8-6.7c2.3-1.3,2.5-5.3,0.7-6.9c-1.8-1.6-0.1-3-0.1-3c2.6-3-0.5-5.6-0.5-5.6
		c2.4-7.8-5.1-7.6-9.4-7.9c-1.4-0.1-3.1-0.7-3.1-0.7s-10.8-5-18.1-4.2c-7.3,0.8-9.9,4.2-14.5,5.2c-4.6,0.9-7.3,2.7-7.3,2.7
		s-4.5,0-7.3,0c-2.9,0-2.7,0.7-2.7,0.7c-1.2,6.6,6.1,9.8,6.1,9.8c4.1,2.4,2.9,0.5,9.6,0.7c7.7,0.4,4.6,5.4,11.2,11.1
		c5.2,4.9,15.2,1.3,19.3-0.1c4.1-1.4,3.8-0.2,4.9,1.6c1.2,1.8,3.3,4.1-0.7,2.9c-4-1.3-11.8,1.8-13.8,2.5c-2,0.7-3.3,0.4-3.3,0.4
		s-3.9-1.8-7-1.4c-3.1,0.5-5.2,2-3.1,5.3c2.1,3.3,4.9,1.8,4.9,1.8s6.3,4.4,8.2,5.9c1.8,1.5,0.1,2.7,0.1,2.7
		c-4.1,5.9-0.5,9.3,5.9,11.8c6.3,2.5,9.8-7.5,9.8-7.5c0.6-2,1.3-0.5,1.3-0.5c6.6,5.9,16.3,4.6,16.3,4.6l10.9,9.9
		c16.6-0.3,21.6,2.1,27.3,4.3c5,1.9,8.5,3.6,8.5,3.6c14.1,7.1,14.9,11.4,17.4,16.4c2.3,4.6,3.9,8.5,5.1,10.6
		c2.4,4.6,2.6,6.9-1.6,9.8c-4.2,2.9-7.3,6.3-9.1,10.1c-1.7,3.8-2.6,2.5-5.4,4.7c-1.5,2-1.5,3-0.2,3.7c1.1,0.6,3.2,1,6.1,1.7
		c1.6,0.3,2.8,0.6,3.8,0.7c3,0.4,3.8-0.1,4.8-0.6c1.4-0.7,3-0.6,4.9-0.5c2,0.1,4.2-1.8,5.3-4.2c1-2.4,2.5-0.8,2.5-0.8
		c4.4,3.3,11.1-1.5,11.1-1.5c1.2,2.3,8.7,6.3,13.2,12.1c4.5,5.7,9,5.6,9,5.6s0.2-23.2,0.3-47.9C867.2,302.7,867.2,300.3,867.2,298z"
		/>
	<path class="st2" d="M202.1,89.5c0.1,4.8,0.9,9.5,2.3,13.9c6.5,20.5,25.7,35.4,48.2,35.4c27.3,0,49.6-21.8,50.6-48.8
		c0-0.6,0-1.2,0-1.8c0-3.1-0.3-6.2-0.9-9.2c-1-5.6-3-10.9-5.7-15.6c-8.7-15.4-25.2-25.8-44.1-25.8c-26.7,0-48.7,20.8-50.5,47.1
		c-0.1,1.1-0.1,2.3-0.1,3.5C202,88.6,202,89,202.1,89.5z M252.6,137.4c-15,0-28.4-6.7-37.5-17.3h74.2h0.7
		C281.1,130.6,267.6,137.4,252.6,137.4z M203.6,84.2c2-25.3,23.2-45.4,49.1-45.4c18.2,0,34.1,9.9,42.6,24.7c2.8,4.8,4.7,10,5.8,15.6
		c0.5,2.9,0.8,5.9,0.8,8.9c0,0.4,0,0.7,0,1.1h-20.3c0,5.1-13.5,8.6-22,9.6c-4,0.5-6.9-0.1-6.9-0.1c5.9,1.9,12.9,0.3,14.3,0
		c1.5-0.4,2.3-0.4,2.3,0.4c0,0.8-1.1,1.1-1.1,1.1c-19.5,2.4-14.2-1.5-23.5-1.5c-9.3,0-13,8.7-13,5.1c0-4.3-0.9-6.5-4.4-6.5
		c-3.4,0-3.1,2.7-7.4,2.7c-1.4,0-2.3-0.3-2.9-0.7c-1.3-0.8-1-2.2,0.2-2.2c1.6,0,1,1.2,2.5,1.4c0.1,0,0.3,0,0.4,0
		c0.7,0,1.4-0.3,2.2-0.8c1.5-0.9,3.1-2.3,4.8-2.3c0.7,0,1.3,0.1,1.9,0.3c1.6,0.6,2.7,1.7,2.7,1.7c-0.1-0.5-0.3-1.4-0.4-2.3
		c-0.4-2.5-0.7-5.9-0.7-5.9h-27.1c0-0.4,0-0.7,0-1.1C203.4,86.8,203.5,85.5,203.6,84.2z"/>
	<path class="st2" d="M230.7,83.3c-0.2-2.3-0.6-4.4-0.9-6.2c-1.3-6.5-3-10.1-3-10.1c-4.6,0.8-2.3,6.4,0.2,10.8
		C228.8,80.8,230.7,83.3,230.7,83.3z"/>
	<path class="st2" d="M233.3,94.6c0.1,2.2,0.2,4.6,0.2,7.1c6.9-8,16.6-2.8,27.4-5c11.5-1.9,15.7-4.4,17.3-4.9c2.8-0.8,2-5.9,2-5.9
		c-2.1,0-4.4-0.5-6.9-1.3c-7.6-2.4-16.6-7.7-24.7-12.1c-3.1-1.7-6.1-3.3-8.8-4.5c-4.1-1.9-10.9-1.8-10.9-1.8s1.4,2.8,2.7,10.3
		C232.3,80.9,232.9,86.8,233.3,94.6z"/>
	<path class="st2" d="M234.9,65h8.9v3.5l6.8,3.7l11.2,6v-8.3l1-0.4l1.1-0.4l0.2,0.1l9.4,7L273,68l-0.4-0.4l-4.6-3.9h-34.5v2.1h1.4
		V65z M257,65h9.6v3.1l-0.9,0.3H257V65z M245.2,65h10.4v3.4h-10.4V65z"/>
	<path class="st2" d="M263.8,70.4v8.4c3,2.4,11.8,4.9,12.9,5.2c0.1,0,0.1,0,0.1,0c0,0,0,0,0-0.1c0-2.6-2.1-2.8-2.1-2.8v-3.5
		C268.8,75.1,263.8,70.4,263.8,70.4z M266.1,77.7c-0.9,0-1.5-0.9-1.5-2.1c0-1.2,0.7-2.1,1.5-2.1c0.9,0,1.5,0.9,1.5,2.1
		C267.6,76.7,266.9,77.7,266.1,77.7z M269.6,79.4c-0.7,0-1.4-0.8-1.4-1.7c0-0.9,0.6-1.7,1.4-1.7c0.7,0,1.4,0.8,1.4,1.7
		C270.9,78.7,270.3,79.4,269.6,79.4z M273,81.1c-0.6,0-1.2-0.7-1.2-1.5c0-0.8,0.5-1.5,1.2-1.5c0.6,0,1.1,0.7,1.1,1.5
		C274.1,80.4,273.6,81.1,273,81.1z"/>
	<path class="st2" d="M253.5,55.5c-3.3,0-3.5,1.5-3.5,1.5l-1.9,5.3h11.5C259.6,58.9,258,55.5,253.5,55.5z"/>
	<path class="st2" d="M271.9,66.3c0-1.8-2.5-5.3-6.1-5.3c-2.7,0-2.6,1.9-2.6,1.9L268,63L271.9,66.3z"/>
	<path class="st2" d="M435.9,98.6h10.3V55.4h13.9v4.8c-0.8,0.8-1.5,1.5-2.2,2.1c-1.3,1.2-2.4,2.1-2.4,3.6c0,3.7,2.2,6.2,5.5,6.2
		c3.3,0,5.5-2.5,5.5-6.2h-2.1c0,2-0.9,4.1-3.4,4.1c-2.2,0-3.5-1.5-3.5-4.1c0-0.5,0.6-1,1.7-2.1c0.7-0.6,1.6-1.4,2.5-2.4
		c0.2-0.2,0.2-0.7,0.2-0.7v-5.3h13.8V45.1h-44.6v10.3h4.6V98.6z M438,76l3.1-8.9l3.1,8.9H438z M444.2,76.7l-3.1,8.9l-3.1-8.9H444.2z
		 M438,55.4h6.2l-3.1,8.9L438,55.4z M440.4,65.7l-3.1,8.9V56.8L440.4,65.7z M440.4,86.9l-3.1,8.9V78L440.4,86.9z M438,97.3l3.1-8.9
		l3.1,8.9H438z M444.9,95.9l-3.1-8.9l3.1-8.9V95.9z M444.9,74.6l-3.1-8.9l3.1-8.9V74.6z M455.3,54l8.9-3.1l8.9,3.1H455.3z
		 M474.5,53.3l-8.9-3.1l8.9-3.1V53.3z M473.1,46.5l-8.9,3.1l-8.9-3.1H473.1z M453.9,47.1l8.9,3.1l-8.9,3.1V47.1z M453.3,53.3
		l-8.9-3.1l8.9-3.1V53.3z M451.9,46.5l-8.9,3.1l-8.9-3.1H451.9z M432.7,47.1l8.9,3.1l-8.9,3.1V47.1z M434,54l8.9-3.1l8.9,3.1h-5.6
		h-10.3H434z"/>
	<path class="st2" d="M475.2,57.3v5.5H472v2.9h3.2V71H472V74h3.2v5.5h2.9V74h11.6v5.5h2.9V74h4V71h-4v-5.3h4v-2.9h-4v-5.5h-2.9v5.5
		h-11.6v-5.5H475.2z M489.7,65.7V71h-11.6v-5.3H489.7z"/>
	<path class="st2" d="M410.7,71.5c0,0.5,0,0.9,0,1.3c0,0.8,0.1,1.6,0.1,2.4c0,0,0,0.1,0,0.1c0.9,11.9,5.9,22.6,13.5,30.7
		c0.2,0.3,0.5,0.5,0.7,0.8c9.2,9.4,22,15.3,36.2,15.3c14.2,0,27-5.9,36.2-15.3c0.3-0.2,0.5-0.5,0.7-0.8c2.2-2.3,4.1-4.8,5.8-7.5
		c4.3-6.8,7-14.7,7.7-23.2c0-0.7,0.1-1.3,0.1-2c0-0.6,0.1-1.2,0.1-1.8c0-2.2-0.2-4.3-0.4-6.5c-0.6-4.7-1.8-9.1-3.6-13.3
		c-7.7-18.1-25.7-30.9-46.6-30.9c-20.8,0-38.7,12.6-46.5,30.6c-2,4.6-3.3,9.6-3.9,14.8C410.8,68,410.7,69.7,410.7,71.5z
		 M495.6,106.8c-8.9,8.6-21,13.9-34.3,13.9c-13.3,0-25.4-5.3-34.3-13.9c-0.3-0.2-0.5-0.5-0.8-0.8h70.1
		C496.1,106.3,495.8,106.5,495.6,106.8z M412.4,66.1c0.6-5.2,1.9-10.1,4-14.7c7.7-17.2,24.9-29.2,45-29.2c20.1,0,37.4,12.1,45,29.4
		c1.9,4.2,3.1,8.6,3.7,13.3c0.3,2.1,0.4,4.3,0.4,6.5c0,0.4,0,0.7,0,1.1c0,0.9-0.1,1.7-0.1,2.6H494v5.6h-5.7v-5.6h-8.9v5.6h-5.7v-5.6
		h-26.2V100h-13.1V75.2h-22.3c-0.1-0.9-0.1-1.7-0.1-2.6c0-0.4,0-0.7,0-1.1C412.1,69.7,412.2,67.9,412.4,66.1z"/>
	<path class="st2" d="M691.3,128.3c-2.3,0.1-4.4,0.2-6.4,0.2C688.5,128.5,691.2,128.3,691.3,128.3z"/>
	<path class="st2" d="M641.3,100.1l1.2,0.6c2.5-4.6,9.7-15.9,9.7-16L651,84C651,84.1,643.8,95.4,641.3,100.1z"/>
	<path class="st2" d="M651.4,83.2c0.2-0.5,0.4-0.9,0.7-1.5c0.3-0.5,0.6-1,0.9-1.6c0.3-0.5,0.7-1.1,1.1-1.6c0.4-0.5,0.8-1.1,1.2-1.6
		c0.4-0.6,0.8-1.1,1.2-1.6c0.4-0.5,0.8-1.1,1.1-1.6c0.7-1,1.5-1.9,2.1-2.7c0.9-1.1,1.6-2,1.9-2.3c-0.5,0.2-1.6,0.7-3,1.4
		c-2,0.9-4.6,2.2-7.3,3.4c-1.3,0.6-2.6,1.3-3.9,1.8c-1.3,0.5-2.5,1-3.5,1.3c-0.6,0.2-1.2,0.4-1.7,0.5l9,6.8
		C651.2,83.7,651.3,83.5,651.4,83.2z"/>
	<path class="st2" d="M659.9,71.3c-0.5,0.8-1.2,1.8-1.8,2.9c-0.3,0.5-0.7,1.1-1,1.6c-0.3,0.6-0.7,1.1-1,1.7
		c-0.6,1.2-1.3,2.3-1.9,3.4c-0.3,0.5-0.6,1-1,1.5c-0.3,0.5-0.6,0.9-0.9,1.3c-0.2,0.2-0.3,0.4-0.4,0.6l13.2,1.8
		c-0.1-0.3-0.3-0.6-0.4-1c-0.2-0.5-0.3-0.9-0.5-1.5c-0.2-0.5-0.3-1.1-0.5-1.6c-0.2-1.2-0.4-2.4-0.7-3.7c-0.4-2.5-0.8-5-1.1-6.9
		c-0.2-1.5-0.3-2.5-0.4-3c-0.1,0.1-0.2,0.3-0.4,0.6C660.9,69.8,660.5,70.5,659.9,71.3z"/>
	<path class="st2" d="M664.2,78.3c0.2,0.6,0.3,1.2,0.5,1.8c0.2,0.6,0.3,1.2,0.5,1.7c0.1,0.6,0.2,1.1,0.4,1.7c0.1,0.5,0.2,1,0.3,1.5
		c0,0.2,0.1,0.5,0.1,0.7c0,0.2,0.1,0.4,0.1,0.6l8-1.5l-12.2-16c0.1,0.4,0.4,1.4,0.7,2.9C663,73.4,663.6,75.8,664.2,78.3z"/>
	<path class="st2" d="M643.4,75.6c1-0.5,2.1-1.1,3.4-1.6c1.3-0.5,2.6-1,4-1.5c2.7-1,5.4-2.1,7.5-2.8c1.6-0.6,2.8-1,3.2-1.2
		l-23.1,0.2l3.3,7.8C642.2,76.2,642.7,75.9,643.4,75.6z"/>
	<path class="st2" d="M607.7,91.8c0,0.4,0,0.9,0,1.3c0,1.4,0.1,2.7,0.3,4.1c1.3,12.3,7.1,23.4,15.6,31.4
		c9.1,8.6,21.3,13.8,34.7,13.8c13.2,0,25.1-5.1,34.1-13.3c8.2-7.5,13.9-17.8,15.8-29.2c0.3-2,0.6-4.1,0.6-6.2c0-0.2,0-0.4,0-0.6
		c0-0.4,0-0.8,0-1.2c0-3.1-0.3-6.2-0.8-9.1c-4.3-23.6-25-41.5-49.8-41.5c-17.1,0-32.3,8.5-41.4,21.6c-2.3,3.3-4.3,6.9-5.8,10.8
		C608.9,79.2,607.7,85.4,607.7,91.8z M658.3,141c-12.7,0-24.2-4.8-33-12.7c0.3,0.1,13,3.9,22.9-0.4c8-5.2-21.8-5.6-2.1-8.3
		c0,0,6.5-0.9,10.5,1.6c4.8,3.1-4.4,8.2,28.2,7.4c-7.8,0-20.4-0.7-23.1-5.8c-3.2-5.8,32.4-9.2,17-12.4c-16.6-1.6-15,1.2-10.8,2.5
		c1.7,0.5,2.7,2.7-0.9,3.9c0,0-3.7,0.8-8.8,1c-12.6,0.6-33.3,1.3-24.9,4c0,0,24,7.8-8.1,6.6h0c15.2-2-0.4-7.3-0.4-7.3
		c-3.5-1.6,0.9-5,7.6-6c9.2-1.3,22.6,0.1,25.2,0.2c4.6,0.2,8.4-0.3,1.7-3c-6.7-2.7,8.2-8.1,24.5-3.7c15.2,7-17.6,8.4-13.2,14.9
		c4.1,5.3,20.2,4.9,20.4,4.9C682.5,136.2,671,141,658.3,141z M653.9,109.7l-7.3,0.9l-0.7,3l-3.3-3.5h-8.3l4.6-1.6l-5.4-2.9l8.1,1.7
		l6.9-3l-1.7,4.2L653.9,109.7z M618.4,63c8.9-12.4,23.5-20.4,39.9-20.4c23.9,0,43.8,17.1,48.3,39.7c0.6,3.1,0.9,6.3,0.9,9.6
		c0,0.3,0,0.6,0,0.8c0,0.1,0,0.2,0,0.3c0,1.4-0.1,2.7-0.3,4c-6.3-1.5-21.1-2.3-34.4-2.1C659.1,95.1,646,96,646,96l-3.4,5.9l-2.4-1.5
		l2.7-4.9c-7.7-0.9-29.4,0.9-33.5,1.3c-0.1-1.3-0.2-2.6-0.3-3.9c0-0.4,0-0.7,0-1.1c0-6.4,1.2-12.5,3.5-18.1
		C614,69.9,616,66.3,618.4,63z"/>
	<path class="st2" d="M768.3,150.3c0,0.5,0,0.9,0,1.3c0,1,0.1,2.1,0.2,3.1c0,0.3,0.1,0.7,0.1,1c1.2,11.5,6.3,21.9,14,29.8
		c0.5,0.5,1.1,1.1,1.6,1.6c9.1,8.6,21.3,13.8,34.7,13.8c13.2,0,25.2-5.1,34.2-13.3c0.7-0.7,1.4-1.4,2.1-2.1
		c4.4-4.5,7.9-9.8,10.4-15.7c0.7-1.8,1.4-3.6,2-5.5c0.6-1.9,1-4,1.3-6c0.2-1.2,0.4-2.4,0.5-3.6c0.1-0.9,0.1-1.7,0.2-2.6
		c0-0.6,0.1-1.2,0.1-1.8c0-27.9-22.7-50.6-50.6-50.6c-12.2,0-23.4,4.3-32.1,11.5c-2.2,1.8-4.3,3.8-6.1,6
		C772.9,126.2,768.3,137.7,768.3,150.3z M851.8,186.9c-8.7,7.9-20.3,12.7-33,12.7c-12.7,0-24.2-4.8-33-12.7c0,0,0,0,0,0h0
		c-0.5-0.4-0.9-0.9-1.4-1.3h7.5l10.1,5.8l3.3-5.8h5.9c0.5,0.1,1.1,0.2,1.6,0.3v8.4h11.9v-8.4c0.5-0.1,1-0.2,1.6-0.3h5.9l3.3,5.8
		l10.1-5.8h7.5C852.8,186,852.3,186.4,851.8,186.9z M841.1,136.5c-0.1,0-0.4,0.1-0.5,0.2c-1,1-2,2-3,3c-0.4,0.4-0.8,0.8-1.2,1.2
		c-0.1,0.1-0.2,0.3-0.3,0.4c-1.6-1.6-3-3-4.5-4.5c0.1-0.1,0.1-0.2,0.2-0.3c0.2-0.2,0.3-0.3,0.5-0.5c1.3-1.3,2.6-2.6,3.9-3.9
		c0.1-0.1,0.2-0.4,0.2-0.5c0-0.1-0.3-0.2-0.5-0.2c-1.8,0-3.5,0-5.3,0c-0.2,0-0.4,0.1-0.6,0.3c-0.6,0.6-1.2,1.2-1.8,1.8
		c-0.9,0.9-1.8,1.7-2.6,2.6c-0.1,0.1-0.2,0.4-0.2,0.6c0,1,0,2,0,3c0,0.6,0,1.2,0,1.9c0,0.3-0.1,0.5-0.3,0.7
		c-1.3,1.3-2.6,2.6-3.8,3.8c-0.1,0.1-0.2,0.2-0.3,0.3l-1.1,1.1c-2.2-2.2-4.4-4.4-6.5-6.5c-0.1,0-0.1-0.1-0.2-0.2
		c0.9-1.2,2.1-1.9,3.6-2.1c1.2-0.2,2.2,0,3.3,0.6c0.3,0.1,0.5,0.1,0.6-0.1c0.5-0.5,0.9-0.9,1.4-1.4c0.4-0.4,0.8-0.8,1.2-1.2
		c0.4-0.4,0.4-0.5,0-0.8c-2.2-2.1-4.7-3.5-7.7-4c-1.6-0.3-3.1-0.3-4.6-0.2c-3.2,0.4-6.1,1.7-8.7,4.1c-0.2,0.2-0.3,0.4-0.2,0.7
		c0.4,1.2,0.1,2.2-0.7,3.1c-0.9,0.9-2,1.1-3.1,0.8c-0.3-0.1-0.5,0-0.8,0.2c-1.1,1.1-2.3,2.3-3.4,3.4c-0.3,0.3-0.3,0.5,0,0.8
		c2.4,2.4,4.7,4.7,7.1,7.1c0.3,0.3,0.5,0.3,0.8,0c1.2-1.2,2.3-2.3,3.5-3.5c0.2-0.2,0.2-0.4,0.1-0.7c-0.7-2.1,0.9-4.2,3.1-4.1
		c0.2,0,0.5,0.1,0.6,0.3c2.4,2.4,4.8,4.8,7.2,7.2l-1.1,1.1c-0.1,0.1-0.1,0.1-0.1,0.1c-0.8,0.8-1.7,1.7-2.5,2.6h-21.3
		c-0.2-1.5-0.4-2.9-0.4-4.4c0-2,0.2-4,0.6-5.9c0.2-0.9,0.4-1.8,0.7-2.6c1.2-3.8,3.3-7.4,5.9-10.3c0.6-0.7,1.3-1.3,1.9-1.9
		c0.9-0.8,1.8-1.5,2.7-2.2c2.3-1.6,4.8-2.9,7.6-3.8c0.2-0.1,0.5-0.1,0.7-0.2c0.6-0.2,1.3-0.4,2-0.5c1.9-0.4,3.9-0.6,5.9-0.6
		c2,0,4,0.2,6,0.6c0.9,0.2,1.8,0.4,2.6,0.7c3.8,1.2,7.3,3.3,10.3,5.9c0.7,0.6,1.3,1.2,1.9,1.9c2.7,2.9,4.7,6.4,5.9,10.3
		c0.3,0.9,0.5,1.7,0.7,2.6c0.1,0.6,0.2,1.2,0.3,1.9c0.2,1.3,0.3,2.7,0.3,4.1c0,1.2-0.1,2.4-0.2,3.6c0,0.3-0.1,0.6-0.1,0.9h-17.5
		c-0.9-0.9-1.9-1.9-2.8-2.8l1.2-1.1c0.1-0.1,0.2-0.2,0.2-0.2c1-1,1.9-1.9,2.9-2.9c0.1-0.1,0.3-0.2,0.5-0.2c1.6,0,3.3,0,4.9,0
		c0.3,0,0.4-0.1,0.6-0.3c0.1-0.1,0.1-0.1,0.2-0.2c1.4-1.4,2.8-2.8,4.2-4.2c0.1-0.1,0.2-0.3,0.2-0.5c0,0,0-0.1,0-0.1
		c0-1.7,0-3.5,0-5.3C841.3,136.8,841.2,136.6,841.1,136.5z M788.2,111.9c8.4-6.8,19.1-10.8,30.7-10.8c27.1,0,49.2,22.1,49.2,49.2
		c0,0.4,0,0.8,0,1.1c0,1.1-0.1,2.2-0.2,3.3h-5.1v-10.4h-8.4c-0.4-2.3-1-4.5-1.8-6.7l7.3-4.2l-5.9-10.3l-7.3,4.2
		c-1.5-1.8-3.1-3.4-4.9-4.9l4.2-7.3l-10.3-5.9l-4.2,7.3c-2.1-0.8-4.4-1.4-6.7-1.8v-8.4h-11.9v8.4c-2.3,0.4-4.5,1-6.7,1.8l-4.2-7.3
		l-8.7,5l-1.6,0.9l4.2,7.3c-0.4,0.3-0.8,0.7-1.2,1c-1.3,1.2-2.6,2.5-3.7,3.9l-7.3-4.2l-5.9,10.3l7.3,4.2c-0.8,2.1-1.4,4.4-1.8,6.7
		H775v10.4h-5.1c-0.1-1.1-0.2-2.2-0.2-3.3c0-0.4,0-0.7,0-1.1c0-12.4,4.6-23.8,12.3-32.5C783.8,115.7,785.9,113.7,788.2,111.9z"/>
	<g>
		<path class="st0" d="M953.9,347.7V91.6h57.1v205.2h109.2v50.9H953.9z"/>
		<path class="st0" d="M1408.4,91.6h57.2v105.2l96.7-105.2h70.7l-101.8,113.2c8.8,12.2,25,35,48.7,68.3
			c23.7,33.3,41.4,58.2,53.1,74.5h-66.7l-75.1-101.1l-25.7,28.6v72.5h-57.2V91.6z"/>
		<path class="st0" d="M1846.6,91.6h57.2v256.1h-57.2l-122-160.5v160.5h-57.2V91.6h53.5l125.7,164.9V91.6z"/>
		<path class="st1" d="M1337.6,114.5c18,15.3,27,38.7,27,70.3c0,31.6-9.2,54.8-27.7,69.4c-18.4,14.6-46.6,22-84.5,22h-34.1v71.4
			h-57.2V91.6h90.5C1291.1,91.6,1319.7,99.3,1337.6,114.5z M1295.7,215.3c6.8-7.7,10.3-18.9,10.3-33.7c0-14.8-4.5-25.3-13.4-31.5
			c-8.9-6.2-22.8-9.4-41.6-9.4h-32.6v86.1h38.5C1275.9,226.8,1288.9,223,1295.7,215.3z"/>
	</g>
</g>
</svg>
